<?xml version="1.0" encoding="UTF-8"?>
<svg width="48px" height="48px" viewBox="0 0 48 48" version="1.1" xmlns="http://www.w3.org/2000/svg" xmlns:xlink="http://www.w3.org/1999/xlink">
    <title>health</title>
    <g id="Page-1" stroke="none" stroke-width="1" fill="none" fill-rule="evenodd">
        <g id="health" fill="#543E3E" fill-rule="nonzero">
            <g id="" transform="translate(14.713000, 6.450000)">
                <path d="M11.894,4.218 C11.6913333,4.16733333 11.438,4.11033333 11.134,4.047 C10.83,3.98366667 10.4626667,3.952 10.032,3.952 C9.62666667,3.952 9.24033333,3.98366667 8.873,4.047 C8.50566667,4.11033333 8.25866667,4.16733333 8.132,4.218 L8.132,4.18 L8.132,4.104 L8.398,0.342 C8.42333333,0.316666667 8.436,0.297666667 8.436,0.285 C8.436,0.272333333 8.46133333,0.253333333 8.512,0.228 C9.044,0.076 9.538,0 9.994,0 C10.7033333,0 11.1973333,0.120333333 11.476,0.361 C11.7546667,0.601666667 11.894,0.785333333 11.894,0.912 L11.894,0.988 L11.894,4.142 L11.894,4.218 Z M13.186,32.832 L13.11,32.832 C13.034,32.7813333 13.0213333,32.7306667 13.072,32.68 C13.9333333,31.692 14.5666667,30.7103333 14.972,29.735 C15.3773333,28.7596667 15.7193333,27.7906667 15.998,26.828 C16.3273333,26.068 16.549,25.2826667 16.663,24.472 C16.777,23.6613333 16.7833333,22.8886667 16.682,22.154 C16.6313333,21.9006667 16.5363333,21.4826667 16.397,20.9 C16.2576667,20.3173333 16.0233333,19.6966667 15.694,19.038 C15.618,18.8606667 15.5546667,18.7593333 15.504,18.734 C15.4533333,18.7086667 15.4026667,18.6833333 15.352,18.658 C15.352,18.6326667 15.3456667,18.6136667 15.333,18.601 C15.3203333,18.5883333 15.314,18.5693333 15.314,18.544 C15.314,18.1133333 15.4153333,17.6573333 15.618,17.176 C15.6686667,17.0493333 15.7446667,16.9416667 15.846,16.853 C15.9473333,16.7643333 16.0233333,16.6946667 16.074,16.644 C16.1246667,16.6186667 16.15,16.606 16.15,16.606 L16.682,16.606 C16.7073333,16.606 16.7326667,16.6186667 16.758,16.644 C16.8846667,16.7706667 17.1,16.9733333 17.404,17.252 C17.708,17.5306667 18.012,17.86 18.316,18.24 C18.62,18.468 18.867,18.7466667 19.057,19.076 C19.247,19.4053333 19.38,19.7473333 19.456,20.102 C19.608,20.5326667 19.6713333,20.9506667 19.646,21.356 C19.6206667,21.7613333 19.57,22.116 19.494,22.42 C19.418,22.724 19.3356667,22.971 19.247,23.161 C19.1583333,23.351 19.114,23.446 19.114,23.446 C18.6073333,24.8646667 18.0246667,26.163 17.366,27.341 C16.7073333,28.519 16.0866667,29.5133333 15.504,30.324 C15.2506667,30.9573333 14.9213333,31.4766667 14.516,31.882 C14.1106667,32.2873333 13.6926667,32.604 13.262,32.832 L13.186,32.832 Z M6.118,5.168 L6.08,5.168 C6.02933333,5.11733333 6.004,5.092 6.004,5.092 L5.548,2.394 L5.548,2.356 C5.59866667,2.25466667 5.76333333,2.071 6.042,1.805 C6.32066667,1.539 6.89066667,1.34266667 7.752,1.216 L7.79,1.216 C7.81533333,1.216 7.84066667,1.22866667 7.866,1.254 C7.89133333,1.254 7.904,1.26666667 7.904,1.292 L7.904,1.634 L7.904,1.672 L7.296,4.332 C7.296,4.35733333 7.28333333,4.38266667 7.258,4.408 C7.13133333,4.484 6.973,4.59166667 6.783,4.731 C6.593,4.87033333 6.40933333,5.00333333 6.232,5.13 C6.20666667,5.15533333 6.16866667,5.168 6.118,5.168 Z M0.152,15.732 C0.126666667,15.732 0.114,15.7193333 0.114,15.694 C0.038,15.694 0,15.656 0,15.58 C0.0253333333,15.276 0.057,15.0796667 0.095,14.991 C0.133,14.9023333 0.177333333,14.7566667 0.228,14.554 C0.456,13.262 0.734666667,12.4386667 1.064,12.084 C1.292,11.9066667 1.52633333,11.647 1.767,11.305 C2.00766667,10.963 2.223,10.602 2.413,10.222 C2.603,9.842 2.76133333,9.462 2.888,9.082 C3.01466667,8.702 3.078,8.37266667 3.078,8.094 C3.10333333,7.79 3.16666667,7.49233333 3.268,7.201 C3.36933333,6.90966667 3.52133333,6.66266667 3.724,6.46 C3.85066667,6.308 3.99633333,6.194 4.161,6.118 C4.32566667,6.042 4.47133333,6.004 4.598,6.004 C4.72466667,6.004 4.864,6.042 5.016,6.118 C5.016,6.14333333 5.02233333,6.156 5.035,6.156 C5.04766667,6.156 5.054,6.16866667 5.054,6.194 C5.054,6.194 5.054,6.24466667 5.054,6.346 C4.64866667,7.30866667 4.294,8.27766667 3.99,9.253 C3.686,10.2283333 3.47066667,11.0073333 3.344,11.59 L3.306,11.59 C3.20466667,11.666 3.10966667,11.7483333 3.021,11.837 C2.93233333,11.9256667 2.82466667,12.0333333 2.698,12.16 C2.57133333,12.3373333 2.432,12.5146667 2.28,12.692 C2.128,12.8693333 1.98866667,13.072 1.862,13.3 C1.786,13.4773333 1.72266667,13.604 1.672,13.68 C1.62133333,13.756 1.57066667,13.832 1.52,13.908 C1.444,14.0093333 1.35533333,14.136 1.254,14.288 C1.15266667,14.44 1.00066667,14.6553333 0.798,14.934 C0.671333333,14.934 0.494,15.162 0.266,15.618 C0.266,15.694 0.228,15.732 0.152,15.732 Z M8.17,15.58 C8.094,15.58 7.87866667,15.523 7.524,15.409 C7.16933333,15.295 6.81466667,15.1366667 6.46,14.934 C6.18133333,14.934 5.99133333,14.8263333 5.89,14.611 C5.78866667,14.3956667 5.71266667,14.136 5.662,13.832 C5.662,13.7813333 5.68733333,13.7306667 5.738,13.68 C6.27,13.4773333 6.75133333,13.1923333 7.182,12.825 C7.61266667,12.4576667 7.92933333,12.0586667 8.132,11.628 C8.208,11.4253333 8.29033333,11.191 8.379,10.925 C8.46766667,10.659 8.512,10.5133333 8.512,10.488 L8.512,10.45 C8.56266667,9.66466667 8.82866667,9.10733333 9.31,8.778 C9.48733333,8.702 9.64566667,8.645 9.785,8.607 C9.92433333,8.569 10.0193333,8.55 10.07,8.55 L10.374,8.55 C10.754,8.55 11.191,8.58166667 11.685,8.645 C12.179,8.70833333 12.6666667,8.78433333 13.148,8.873 C13.6293333,8.96166667 14.0663333,9.05033333 14.459,9.139 C14.8516667,9.22766667 15.1493333,9.31 15.352,9.386 C15.3773333,9.41133333 15.39,9.462 15.39,9.538 C15.39,9.58866667 15.3773333,9.62666667 15.352,9.652 L15.352,9.728 C15.352,9.77866667 15.3393333,9.89266667 15.314,10.07 C15.2886667,10.2473333 15.2886667,10.4373333 15.314,10.64 C15.314,10.6906667 15.3013333,10.7286667 15.276,10.754 C15.276,10.7793333 15.2633333,10.792 15.238,10.792 C15.0353333,10.6653333 14.801,10.5703333 14.535,10.507 C14.269,10.4436667 14.0093333,10.412 13.756,10.412 C13.3,10.412 12.9453333,10.4943333 12.692,10.659 C12.4386667,10.8236667 12.2486667,10.9946667 12.122,11.172 C11.97,11.2986667 11.894,11.4 11.894,11.476 L11.894,11.514 C11.8433333,11.5646667 11.6913333,11.7166667 11.438,11.97 C11.1846667,12.2233333 10.8806667,12.6413333 10.526,13.224 C10.2473333,13.7053333 9.994,14.1296667 9.766,14.497 C9.538,14.8643333 9.348,15.162 9.196,15.39 C9.14533333,15.4406667 9.10733333,15.466 9.082,15.466 C8.778,15.542 8.474,15.58 8.17,15.58 Z M5.396,12.312 C5.092,12.312 4.88933333,12.274 4.788,12.198 C4.76266667,12.1726667 4.73733333,12.1536667 4.712,12.141 C4.68666667,12.1283333 4.66133333,12.0966667 4.636,12.046 C4.56,11.9446667 4.49666667,11.8306667 4.446,11.704 C4.39533333,11.5773333 4.38266667,11.3746667 4.408,11.096 C4.45866667,10.6906667 4.522,10.2663333 4.598,9.823 C4.674,9.37966667 4.75,8.93 4.826,8.474 C5.07933333,7.68866667 5.40233333,7.05533333 5.795,6.574 C6.18766667,6.09266667 6.612,5.719 7.068,5.453 C7.524,5.187 7.98,5.00966667 8.436,4.921 C8.892,4.83233333 9.32266667,4.788 9.728,4.788 C10.6906667,4.788 11.457,4.902 12.027,5.13 C12.597,5.358 13.034,5.586 13.338,5.814 C13.8446667,6.24466667 14.212,6.85266667 14.44,7.638 C14.44,7.66333333 14.4273333,7.68866667 14.402,7.714 L14.288,7.714 L14.25,7.714 C13.718,7.638 13.2746667,7.56833333 12.92,7.505 C12.5653333,7.44166667 12.3246667,7.39733333 12.198,7.372 C12.046,7.296 11.951,7.24533333 11.913,7.22 C11.875,7.19466667 11.7926667,7.182 11.666,7.182 C11.1086667,7.182 10.6273333,7.23266667 10.222,7.334 C9.41133333,7.486 8.86033333,7.714 8.569,8.018 C8.27766667,8.322 8.132,8.49933333 8.132,8.55 C8.08133333,8.98066667 8.037,9.443 7.999,9.937 C7.961,10.431 7.942,10.7666667 7.942,10.944 C7.942,10.9693333 7.92933333,10.982 7.904,10.982 C7.6,11.362 7.24533333,11.6406667 6.84,11.818 C6.63733333,12.0206667 6.39666667,12.1536667 6.118,12.217 C5.83933333,12.2803333 5.59866667,12.312 5.396,12.312 Z M13.68,17.29 C13.5533333,17.29 13.4393333,17.2393333 13.338,17.138 C13.3126667,17.1126667 13.3,17.0873333 13.3,17.062 C13.1733333,16.53 13.1163333,16.0803333 13.129,15.713 C13.1416667,15.3456667 13.1796667,15.048 13.243,14.82 C13.3063333,14.592 13.376,14.4273333 13.452,14.326 C13.528,14.2246667 13.5786667,14.1613333 13.604,14.136 L13.604,14.098 L13.794,13.946 L13.566,13.832 C13.414,13.756 13.2746667,13.718 13.148,13.718 C13.0466667,13.718 12.9263333,13.7433333 12.787,13.794 C12.6476667,13.8446667 12.5146667,13.9713333 12.388,14.174 C11.9826667,14.858 11.894,15.4913333 12.122,16.074 C12.2233333,16.2766667 12.274,16.454 12.274,16.606 C12.274,16.758 12.2613333,16.8593333 12.236,16.91 C12.1853333,16.9606667 12.1473333,16.986 12.122,16.986 C12.0713333,17.0113333 12.0206667,17.024 11.97,17.024 L11.894,17.024 C11.8686667,17.024 11.7483333,16.9733333 11.533,16.872 C11.3176667,16.7706667 11.1086667,16.6186667 10.906,16.416 C10.83,16.34 10.7603333,16.2386667 10.697,16.112 C10.6336667,15.9853333 10.6146667,15.8206667 10.64,15.618 C10.6653333,15.2633333 10.7096667,15.01 10.773,14.858 C10.8363333,14.706 10.9186667,14.478 11.02,14.174 C11.1973333,13.6926667 11.4506667,13.262 11.78,12.882 C11.8306667,12.502 11.97,12.2613333 12.198,12.16 C12.426,12.0586667 12.6413333,12.008 12.844,12.008 C13.1733333,12.008 13.4393333,12.0586667 13.642,12.16 C14.1486667,12.4386667 14.4526667,12.787 14.554,13.205 C14.6553333,13.623 14.554,14.1866667 14.25,14.896 C14.1233333,15.048 14.0283333,15.2253333 13.965,15.428 C13.9016667,15.6306667 13.8636667,15.8333333 13.851,16.036 C13.8383333,16.2386667 13.8383333,16.4413333 13.851,16.644 C13.8636667,16.8466667 13.87,16.9986667 13.87,17.1 C13.8953333,17.1253333 13.8826667,17.1633333 13.832,17.214 C13.7813333,17.2646667 13.7306667,17.29 13.68,17.29 Z M14.934,17.404 L14.896,17.404 C14.8453333,17.404 14.8073333,17.366 14.782,17.29 C14.7313333,17.0873333 14.706,16.91 14.706,16.758 C14.6553333,16.2513333 14.6806667,15.8143333 14.782,15.447 C14.8833333,15.0796667 15.0226667,14.8706667 15.2,14.82 L15.2,14.782 C15.2,14.7566667 15.2126667,14.706 15.238,14.63 C15.238,14.5793333 15.2443333,14.5223333 15.257,14.459 C15.2696667,14.3956667 15.276,14.3133333 15.276,14.212 L15.276,14.136 L15.276,14.06 C15.276,13.6293333 15.2253333,13.2493333 15.124,12.92 L15.124,12.806 C15.124,12.7553333 15.1366667,12.73 15.162,12.73 L17.176,12.084 L17.214,12.084 L17.29,12.084 C17.3153333,12.1093333 17.328,12.1283333 17.328,12.141 C17.328,12.1536667 17.3406667,12.1726667 17.366,12.198 L17.594,13.376 C17.594,13.452 17.556,13.5026667 17.48,13.528 L15.466,14.136 L17.48,14.668 C17.556,14.668 17.594,14.7186667 17.594,14.82 L17.404,15.314 C17.404,15.39 17.3533333,15.428 17.252,15.428 L15.504,15.428 L15.01,17.328 C15.01,17.3786667 14.9846667,17.404 14.934,17.404 Z M9.994,33.592 C9.69,33.592 9.43033333,33.5603333 9.215,33.497 C8.99966667,33.4336667 8.86666667,33.3893333 8.816,33.364 L8.816,33.326 C8.79066667,33.326 8.76533333,33.3196667 8.74,33.307 C8.71466667,33.2943333 8.664,33.2753333 8.588,33.25 C8.36,33.1486667 8.06233333,32.965 7.695,32.699 C7.32766667,32.433 6.726,32.0466667 5.89,31.54 C5.15533333,30.7546667 4.36366667,29.9376667 3.515,29.089 C2.66633333,28.2403333 1.9,27.2333333 1.216,26.068 C0.886666667,25.5613333 0.614333333,24.9343333 0.399,24.187 C0.183666667,23.4396667 0.0886666667,22.7113333 0.114,22.002 C0.139333333,21.3433333 0.234333333,20.653 0.399,19.931 C0.563666667,19.209 0.772666667,18.6073333 1.026,18.126 C1.20333333,17.4673333 1.425,16.891 1.691,16.397 C1.957,15.903 2.21666667,15.485 2.47,15.143 C2.72333333,14.801 2.95133333,14.5286667 3.154,14.326 C3.35666667,14.1233333 3.496,13.9713333 3.572,13.87 L3.61,13.832 C3.63533333,13.832 3.67333333,13.8193333 3.724,13.794 C3.77466667,13.7686667 3.82533333,13.756 3.876,13.756 C4.23066667,13.756 4.47133333,14.1486667 4.598,14.934 C4.674,15.162 4.79433333,15.4343333 4.959,15.751 C5.12366667,16.0676667 5.396,16.34 5.776,16.568 C6.35866667,16.8973333 7.11866667,17.062 8.056,17.062 C8.10666667,17.062 8.21433333,17.0493333 8.379,17.024 C8.54366667,16.9986667 8.74,16.9733333 8.968,16.948 C9.14533333,16.9226667 9.29733333,16.9036667 9.424,16.891 C9.55066667,16.8783333 9.66466667,16.872 9.766,16.872 L9.804,16.872 C9.82933333,16.872 9.86733333,16.8973333 9.918,16.948 C9.994,17.1 10.1206667,17.2773333 10.298,17.48 C10.4753333,17.6826667 10.7286667,17.8853333 11.058,18.088 C11.4886667,18.3666667 11.7356667,18.525 11.799,18.563 C11.8623333,18.601 11.894,18.6453333 11.894,18.696 L12.008,18.696 C12.312,18.696 12.6793333,18.753 13.11,18.867 C13.5406667,18.981 13.794,19.0886667 13.87,19.19 C13.9206667,19.2406667 14.022,19.4116667 14.174,19.703 C14.326,19.9943333 14.478,20.3363333 14.63,20.729 C14.782,21.1216667 14.9086667,21.546 15.01,22.002 C15.1113333,22.458 15.1493333,22.8886667 15.124,23.294 C15.0986667,23.8006667 15.0606667,24.2376667 15.01,24.605 C14.9593333,24.9723333 14.8896667,25.327 14.801,25.669 C14.7123333,26.011 14.5856667,26.3656667 14.421,26.733 C14.2563333,27.1003333 14.0473333,27.5373333 13.794,28.044 C13.642,28.3226667 13.5026667,28.557 13.376,28.747 C13.2493333,28.937 13.1353333,29.1206667 13.034,29.298 C12.7806667,29.678 12.559,30.1023333 12.369,30.571 C12.179,31.0396667 12.0206667,31.7046667 11.894,32.566 C11.6913333,32.9206667 11.4316667,33.1803333 11.115,33.345 C10.7983333,33.5096667 10.4246667,33.592 9.994,33.592 Z" id="Shape"></path>
            </g>
        </g>
    </g>
</svg>