<?xml version="1.0" encoding="UTF-8"?>
<svg width="48px" height="48px" viewBox="0 0 48 48" version="1.1" xmlns="http://www.w3.org/2000/svg" xmlns:xlink="http://www.w3.org/1999/xlink">
    <title>observation</title>
    <g id="Page-1" stroke="none" stroke-width="1" fill="none" fill-rule="evenodd">
        <g id="observation" fill="#543E3E" fill-rule="nonzero">
            <g id="" transform="translate(4.008000, 13.751333)">
                <path d="M39.368,18.6526667 C39.4053333,18.7273333 39.4333333,18.802 39.452,18.8766667 C39.4706667,18.9513333 39.4893333,19.0353333 39.508,19.1286667 C39.508,19.3153333 39.536,19.4926667 39.592,19.6606667 C39.5546667,19.6793333 39.5313333,19.698 39.522,19.7166667 C39.5126667,19.7353333 39.4893333,19.754 39.452,19.7726667 C39.4333333,19.81 39.4146667,19.8426667 39.396,19.8706667 C39.3773333,19.8986667 39.3493333,19.9313333 39.312,19.9686667 C39.2186667,19.9126667 39.1393333,19.8566667 39.074,19.8006667 C39.0086667,19.7446667 38.9293333,19.6886667 38.836,19.6326667 C38.7426667,19.5766667 38.6633333,19.5206667 38.598,19.4646667 C38.5326667,19.4086667 38.4533333,19.362 38.36,19.3246667 C38.2106667,19.1566667 38.0613333,18.9886667 37.912,18.8206667 C37.7626667,18.6526667 37.6133333,18.4846667 37.464,18.3166667 C37.2213333,17.9993333 36.9226667,17.6913333 36.568,17.3926667 C36.4373333,17.2993333 36.232,17.234 35.952,17.1966667 C35.672,17.178 35.4573333,17.2153333 35.308,17.3086667 C34.1506667,18.0553333 32.8813333,18.5873333 31.5,18.9046667 C30.828,19.054 30.1513333,19.1846667 29.47,19.2966667 C28.7886667,19.4086667 28.1026667,19.5113333 27.412,19.6046667 C26.572,19.698 25.7366667,19.782 24.906,19.8566667 C24.0753333,19.9313333 23.24,19.9966667 22.4,20.0526667 C21.56,20.1273333 20.72,20.1646667 19.88,20.1646667 C19.04,20.1646667 18.2,20.1366667 17.36,20.0806667 C15.736,20.0246667 14.224,19.7353333 12.824,19.2126667 C11.3866667,18.6713333 10.1173333,17.9433333 9.016,17.0286667 C8.456,16.562 7.93333333,16.058 7.448,15.5166667 C6.96266667,14.9753333 6.524,14.378 6.132,13.7246667 C5.348,12.4553333 4.77866667,11.0086667 4.424,9.38466667 C4.38666667,9.27266667 4.34933333,9.17 4.312,9.07666667 C4.27466667,8.98333333 4.24666667,8.89 4.228,8.79666667 C3.78,9.114 3.43466667,9.49666667 3.192,9.94466667 C2.94933333,10.4113333 2.75333333,10.8686667 2.604,11.3166667 C2.51066667,11.578 2.42666667,11.8253333 2.352,12.0586667 C2.27733333,12.292 2.19333333,12.53 2.1,12.7726667 C2.00666667,13.034 1.89466667,13.2766667 1.764,13.5006667 C1.63333333,13.7246667 1.49333333,13.9486667 1.344,14.1726667 C0.84,11.578 1.26933333,9.366 2.632,7.53666667 C2.94933333,7.05133333 3.28533333,6.58933333 3.64,6.15066667 C3.99466667,5.712 4.35866667,5.278 4.732,4.84866667 C5.10533333,4.41933333 5.47866667,3.99 5.852,3.56066667 C6.22533333,3.13133333 6.59866667,2.68333333 6.972,2.21666667 C6.692,2.21666667 6.412,2.21666667 6.132,2.21666667 C5.852,2.21666667 5.55333333,2.20733333 5.236,2.18866667 C4.93733333,2.17 4.64333333,2.16533333 4.354,2.17466667 C4.06466667,2.184 3.78,2.198 3.5,2.21666667 C3.22,2.254 2.93533333,2.28666667 2.646,2.31466667 C2.35666667,2.34266667 2.072,2.37533333 1.792,2.41266667 C1.19466667,2.506 0.616,2.562 0.056,2.58066667 C0.056,2.46866667 0.0373333333,2.37533333 0,2.30066667 C0.0373333333,2.282 0.0653333333,2.26333333 0.084,2.24466667 C0.102666667,2.226 0.130666667,2.20733333 0.168,2.18866667 C0.224,2.13266667 0.28,2.10466667 0.336,2.10466667 C2.14666667,1.60066667 3.93866667,1.18066667 5.712,0.844666667 C7.48533333,0.508666667 9.27733333,0.266 11.088,0.116666667 C14.672,-0.163333333 18.3026667,0.0606666667 21.98,0.788666667 C22.6706667,0.938 23.3426667,1.11533333 23.996,1.32066667 C24.6493333,1.526 25.3026667,1.76866667 25.956,2.04866667 C27.2813333,2.59 28.5133333,3.24333333 29.652,4.00866667 C29.988,4.28866667 30.3146667,4.634 30.632,5.04466667 C30.7813333,5.25 30.9306667,5.446 31.08,5.63266667 C31.2293333,5.81933333 31.3786667,6.01533333 31.528,6.22066667 C32.0133333,6.93 32.5033333,7.64866667 32.998,8.37666667 C33.4926667,9.10466667 33.992,9.83266667 34.496,10.5606667 L37.436,14.9286667 C37.6226667,15.2273333 37.7953333,15.526 37.954,15.8246667 C38.1126667,16.1233333 38.2666667,16.4313333 38.416,16.7486667 C38.7146667,17.3833333 39.032,18.018 39.368,18.6526667 Z M31.724,15.8806667 C32.0786667,15.526 32.312,15.106 32.424,14.6206667 C32.5173333,14.1166667 32.424,13.6313333 32.144,13.1646667 C32.0133333,12.9406667 31.8733333,12.7306667 31.724,12.5346667 C31.5746667,12.3386667 31.416,12.1473333 31.248,11.9606667 C30.9306667,11.6246667 30.5666667,11.3073333 30.156,11.0086667 C29.9506667,10.8593333 29.7453333,10.7193333 29.54,10.5886667 C29.3346667,10.458 29.12,10.3273333 28.896,10.1966667 C28.6906667,10.066 28.476,9.94 28.252,9.81866667 C28.028,9.69733333 27.804,9.57133333 27.58,9.44066667 C27.4493333,11.214 26.964,12.7166667 26.124,13.9486667 C25.3026667,15.162 24.0333333,16.0206667 22.316,16.5246667 C21.98,16.618 21.644,16.6833333 21.308,16.7206667 C20.972,16.758 20.6173333,16.7766667 20.244,16.7766667 C19.5346667,16.758 18.8626667,16.646 18.228,16.4406667 C17.5746667,16.198 16.9773333,15.89 16.436,15.5166667 C15.876,15.1246667 15.4,14.6486667 15.008,14.0886667 C13.9066667,12.5766667 13.412,11.0366667 13.524,9.46866667 C13.636,7.95666667 14.2706667,6.398 15.428,4.79266667 C15.1106667,4.774 14.798,4.75533333 14.49,4.73666667 C14.182,4.718 13.888,4.69933333 13.608,4.68066667 C13.048,4.62466667 12.4786667,4.62466667 11.9,4.68066667 C10.8546667,4.69933333 9.97733333,4.998 9.268,5.57666667 C8.55866667,6.19266667 8.04533333,6.986 7.728,7.95666667 C7.54133333,8.47933333 7.41066667,8.97866667 7.336,9.45466667 C7.26133333,9.93066667 7.24266667,10.3926667 7.28,10.8406667 C7.31733333,11.2886667 7.38733333,11.7133333 7.49,12.1146667 C7.59266667,12.516 7.728,12.9033333 7.896,13.2766667 C8.232,14.0046667 8.66133333,14.658 9.184,15.2366667 C9.70666667,15.7966667 10.2666667,16.2726667 10.864,16.6646667 C11.7973333,17.318 12.8333333,17.8313333 13.972,18.2046667 C14.5133333,18.3726667 15.064,18.5173333 15.624,18.6386667 C16.184,18.76 16.7626667,18.858 17.36,18.9326667 C17.864,19.0073333 18.3633333,19.0633333 18.858,19.1006667 C19.3526667,19.138 19.852,19.1753333 20.356,19.2126667 C21.364,19.2686667 22.3626667,19.2686667 23.352,19.2126667 C23.8373333,19.1753333 24.318,19.124 24.794,19.0586667 C25.27,18.9933333 25.7506667,18.914 26.236,18.8206667 C27.2066667,18.5966667 28.1493333,18.2886667 29.064,17.8966667 C30.1093333,17.4486667 30.996,16.7766667 31.724,15.8806667 Z M18.592,5.99666667 C18.2746667,5.99666667 17.9946667,6.05266667 17.752,6.16466667 C17.5093333,6.27666667 17.2853333,6.43533333 17.08,6.64066667 C16.9866667,6.734 16.9026667,6.83666667 16.828,6.94866667 C16.7533333,7.06066667 16.688,7.182 16.632,7.31266667 C16.5386667,7.518 16.492,7.77933333 16.492,8.09666667 C16.548,8.61933333 16.772,9.07666667 17.164,9.46866667 C17.5933333,9.87933333 18.0693333,10.0566667 18.592,10.0006667 C19.1146667,10.0006667 19.572,9.80466667 19.964,9.41266667 C20.3746667,9.002 20.58,8.53533333 20.58,8.01266667 C20.524,7.47133333 20.3,7.00466667 19.908,6.61266667 C19.4973333,6.202 19.0586667,5.99666667 18.592,5.99666667 Z" id="Shape"></path>
            </g>
        </g>
    </g>
</svg>