<?xml version="1.0" encoding="UTF-8"?>
<svg width="48px" height="48px" viewBox="0 0 48 48" version="1.1" xmlns="http://www.w3.org/2000/svg" xmlns:xlink="http://www.w3.org/1999/xlink">
    <title>mind</title>
    <g id="Page-1" stroke="none" stroke-width="1" fill="none" fill-rule="evenodd">
        <g id="mind" fill="#543E3E" fill-rule="nonzero">
            <g id="" transform="translate(5.815318, 8.878000)">
                <path d="M21.0361818,26.936 C20.8388485,26.936 20.6291818,26.9113333 20.4071818,26.862 C20.1851818,26.8126667 19.9755152,26.7633333 19.7781818,26.714 C19.4081818,26.6153333 19.1306818,26.455 18.9456818,26.233 C18.7606818,26.011 18.6558485,25.8753333 18.6311818,25.826 C18.5818485,25.7766667 18.5818485,25.752 18.6311818,25.752 C18.6311818,25.7026667 18.6558485,25.678 18.7051818,25.678 C19.0505152,25.6286667 19.3958485,25.5423333 19.7411818,25.419 C20.0865152,25.2956667 20.3948485,25.1106667 20.6661818,24.864 L20.6661818,24.827 C20.7401818,24.7776667 20.9436818,24.6666667 21.2766818,24.494 C21.6096818,24.3213333 22.0228485,24.1116667 22.5161818,23.865 C22.8861818,23.6676667 23.1390152,23.421 23.2746818,23.125 C23.4103485,22.829 23.5398485,22.5946667 23.6631818,22.422 C23.7371818,22.274 23.8235152,22.1506667 23.9221818,22.052 C24.0455152,21.9286667 24.2983485,21.756 24.6806818,21.534 C25.0630152,21.312 25.5378485,21.0406667 26.1051818,20.72 C26.4751818,20.5473333 26.7095152,20.3376667 26.8081818,20.091 C26.8821818,19.9676667 26.9623485,19.869 27.0486818,19.795 C27.1350152,19.721 27.3138485,19.6593333 27.5851818,19.61 C28.5471818,19.4866667 29.2255152,19.3078333 29.6201818,19.0735 C30.0148485,18.8391667 30.3478485,18.5493333 30.6191818,18.204 C30.9151818,17.8093333 31.1001818,17.4701667 31.1741818,17.1865 C31.2481818,16.9028333 31.2975152,16.6623333 31.3221818,16.465 C31.3468485,16.2923333 31.3776818,16.1566667 31.4146818,16.058 C31.4516818,15.9593333 31.5441818,15.8483333 31.6921818,15.725 C32.0128485,15.5276667 32.2225152,15.3981667 32.3211818,15.3365 C32.4198485,15.2748333 32.5308485,15.1576667 32.6541818,14.985 C32.6788485,14.8863333 32.7528485,14.7753333 32.8761818,14.652 C32.9995152,14.4546667 33.1475152,14.2943333 33.3201818,14.171 C33.4435152,14.0476667 33.5668485,13.8996667 33.6901818,13.727 C33.8135152,13.5543333 33.9121818,13.283 33.9861818,12.913 C33.9861818,12.7896667 33.9615152,12.7156667 33.9121818,12.691 L33.8381818,12.691 C33.7641818,12.691 33.7148485,12.7033333 33.6901818,12.728 C33.6901818,12.7773333 33.6778485,12.8143333 33.6531818,12.839 L33.6161818,12.839 L33.6161818,12.876 C33.2955152,13.1226667 33.0118485,13.246 32.7651818,13.246 C32.7405152,13.246 32.7220152,13.2398333 32.7096818,13.2275 C32.6973485,13.2151667 32.6788485,13.209 32.6541818,13.209 C32.6295152,13.209 32.5986818,13.2028333 32.5616818,13.1905 C32.5246818,13.1781667 32.4815152,13.172 32.4321818,13.172 C32.2841818,13.098 32.1361818,13.061 31.9881818,13.061 C31.7908485,13.061 31.6798485,13.098 31.6551818,13.172 C31.6305152,13.1966667 31.5441818,13.2583333 31.3961818,13.357 C31.3961818,13.3816667 31.3838485,13.394 31.3591818,13.394 C31.3098485,13.4433333 31.2851818,13.468 31.2851818,13.468 L31.2851818,13.616 C31.3098485,14.0106667 31.2481818,14.3313333 31.1001818,14.578 C31.0755152,14.6026667 31.0385152,14.615 30.9891818,14.615 L30.9521818,14.615 C30.8781818,14.615 30.8411818,14.578 30.8411818,14.504 C30.7918485,13.8873333 30.7055152,13.4186667 30.5821818,13.098 L30.5821818,13.061 C30.5821818,12.987 30.5575152,12.9006667 30.5081818,12.802 C30.4835152,12.7526667 30.4711818,12.728 30.4711818,12.728 C30.4218485,12.58 30.3848485,12.469 30.3601818,12.395 C30.3355152,12.3456667 30.3231818,12.2963333 30.3231818,12.247 C30.3231818,12.1976667 30.3108485,12.1483333 30.2861818,12.099 L30.2861818,12.062 C30.2861818,11.914 30.3355152,11.7906667 30.4341818,11.692 C30.5328485,11.6673333 30.6931818,11.655 30.9151818,11.655 C30.9645152,11.655 31.0631818,11.6303333 31.2111818,11.581 L31.3591818,11.507 C31.6551818,11.4083333 31.9141818,11.2541667 32.1361818,11.0445 C32.3581818,10.8348333 32.5308485,10.5943333 32.6541818,10.323 C32.7775152,10.0516667 32.8453485,9.6755 32.8576818,9.1945 C32.8700152,8.7135 32.7158485,8.177 32.3951818,7.585 C32.2718485,7.31366667 32.1300152,7.05466667 31.9696818,6.808 C31.8093485,6.56133333 31.6181818,6.30233333 31.3961818,6.031 C31.3715152,6.00633333 31.3715152,5.957 31.3961818,5.883 C31.3961818,5.83366667 31.4331818,5.809 31.5071818,5.809 L31.5811818,5.809 C31.6798485,5.809 31.7415152,5.79666667 31.7661818,5.772 C31.9881818,5.74733333 32.2225152,5.64866667 32.4691818,5.476 C32.4691818,5.45133333 32.4938485,5.439 32.5431818,5.439 C32.5925152,5.439 32.6171818,5.45133333 32.6171818,5.476 C32.9871818,5.772 33.2770152,6.031 33.4866818,6.253 C33.6963485,6.475 33.8566818,6.6785 33.9676818,6.8635 C34.0786818,7.0485 34.1650152,7.22733333 34.2266818,7.4 C34.2883485,7.57266667 34.3561818,7.77 34.4301818,7.992 C34.4548485,8.04133333 34.4795152,8.09066667 34.5041818,8.14 C34.5288485,8.18933333 34.5658485,8.27566667 34.6151818,8.399 C34.6645152,8.473 34.6953485,8.547 34.7076818,8.621 C34.7200152,8.695 34.7508485,8.769 34.8001818,8.843 C34.8988485,9.04033333 34.9975152,9.28083333 35.0961818,9.5645 C35.1948485,9.84816667 35.3058485,10.2366667 35.4291818,10.73 C35.5278485,11.1246667 35.5833485,11.4145 35.5956818,11.5995 C35.6080152,11.7845 35.6141818,11.9756667 35.6141818,12.173 C35.6141818,12.2963333 35.6141818,12.4196667 35.6141818,12.543 C35.6141818,12.6663333 35.6388485,12.7896667 35.6881818,12.913 C35.7621818,13.3323333 35.7806818,13.7023333 35.7436818,14.023 C35.7066818,14.3436667 35.6450152,14.6273333 35.5586818,14.874 C35.4723485,15.1206667 35.3921818,15.3118333 35.3181818,15.4475 C35.2441818,15.5831667 35.2071818,15.651 35.2071818,15.651 C35.1825152,15.6756667 35.1701818,15.7126667 35.1701818,15.762 C35.2935152,16.3786667 35.2380152,16.8288333 35.0036818,17.1125 C34.7693485,17.3961667 34.6398485,17.538 34.6151818,17.538 C34.5411818,17.5873333 34.5041818,17.649 34.5041818,17.723 L34.5041818,18.093 L34.4671818,18.13 C34.3685152,18.4013333 34.1896818,18.7096667 33.9306818,19.055 C33.6716818,19.4003333 33.2461818,19.721 32.6541818,20.017 L32.3211818,20.165 C30.8411818,20.8556667 29.8791818,21.386 29.4351818,21.756 C29.1638485,21.9533333 28.8555152,22.2246667 28.5101818,22.57 C28.1648485,22.9153333 27.8195152,23.5566667 27.4741818,24.494 C27.4495152,24.5186667 27.4371818,24.5556667 27.4371818,24.605 C27.4618485,24.6543333 27.4495152,24.7036667 27.4001818,24.753 C27.1288485,25.0243333 26.8513485,25.2401667 26.5676818,25.4005 C26.2840152,25.5608333 26.0250152,25.678 25.7906818,25.752 C25.5563485,25.826 25.3466818,25.8691667 25.1616818,25.8815 C24.9766818,25.8938333 24.8595152,25.9 24.8101818,25.9 L24.7361818,25.9 C24.7115152,25.9 24.6868485,25.9061667 24.6621818,25.9185 C24.6375152,25.9308333 24.6128485,25.937 24.5881818,25.937 C24.4155152,26.0603333 24.2120152,26.159 23.9776818,26.233 C23.7433485,26.307 23.5151818,26.3686667 23.2931818,26.418 C23.2931818,26.4426667 23.2808485,26.455 23.2561818,26.455 C22.9848485,26.6276667 22.6641818,26.7386667 22.2941818,26.788 C21.9241818,26.8373333 21.6775152,26.8743333 21.5541818,26.899 L21.5171818,26.899 L21.4801818,26.899 C21.3815152,26.9236667 21.2335152,26.936 21.0361818,26.936 Z M7.34618182,25.974 L7.27218182,25.974 L7.23518182,25.974 C7.18584848,25.974 7.11184848,25.9616667 7.01318182,25.937 C6.91451515,25.9123333 6.80351515,25.8753333 6.68018182,25.826 C6.48284848,25.7273333 6.22384848,25.5238333 5.90318182,25.2155 C5.58251515,24.9071667 5.37284848,24.4693333 5.27418182,23.902 C5.27418182,23.8526667 5.28651515,23.8156667 5.31118182,23.791 L5.34818182,23.754 L5.38518182,23.754 C5.43451515,23.7786667 5.49001515,23.791 5.55168182,23.791 C5.61334848,23.791 5.66884848,23.791 5.71818182,23.791 L5.94018182,23.791 C6.35951515,23.7663333 6.71718182,23.606 7.01318182,23.31 C7.16118182,23.162 7.21051515,23.0263333 7.16118182,22.903 C7.11184848,22.7796667 7.02551515,22.7056667 6.90218182,22.681 C6.77884848,22.6563333 6.68018182,22.644 6.60618182,22.644 L6.38418182,22.644 C6.08818182,22.6193333 5.81684848,22.5823333 5.57018182,22.533 C5.52084848,22.533 5.48384848,22.5206667 5.45918182,22.496 C5.33584848,22.496 5.21251515,22.3603333 5.08918182,22.089 C4.89184848,21.5956667 4.84251515,20.9913333 4.94118182,20.276 C4.99051515,19.8566667 5.03984848,19.5791667 5.08918182,19.4435 C5.13851515,19.3078333 5.18784848,19.203 5.23718182,19.129 C5.31118182,19.0303333 5.37284848,18.9008333 5.42218182,18.7405 C5.47151515,18.5801667 5.52084848,18.2163333 5.57018182,17.649 C5.59484848,17.131 5.62568182,16.7116667 5.66268182,16.391 C5.69968182,16.0703333 5.74901515,15.8175 5.81068182,15.6325 C5.87234848,15.4475 5.94018182,15.2995 6.01418182,15.1885 C6.08818182,15.0775 6.18684848,14.9603333 6.31018182,14.837 L6.38418182,14.763 C6.97618182,13.875 7.56818182,13.2953333 8.16018182,13.024 C8.35751515,12.95 8.54868182,12.9068333 8.73368182,12.8945 C8.91868182,12.8821667 9.07284848,12.8636667 9.19618182,12.839 C9.51684848,12.839 9.73884848,12.8266667 9.86218182,12.802 C10.2815152,12.6786667 10.5281818,12.4813333 10.6021818,12.21 C10.6268485,12.0373333 10.5898485,11.8646667 10.4911818,11.692 C10.4418485,11.6673333 10.4048485,11.6303333 10.3801818,11.581 C10.3555152,11.5316667 10.3555152,11.433 10.3801818,11.285 C10.3801818,11.1616667 10.4233485,11.0075 10.5096818,10.8225 C10.5960152,10.6375 10.7501818,10.4586667 10.9721818,10.286 C11.0955152,10.1873333 11.2188485,10.0886667 11.3421818,9.99 C11.4655152,9.89133333 11.5888485,9.79266667 11.7121818,9.694 C12.0081818,9.42266667 12.2610152,9.18833333 12.4706818,8.991 C12.6803485,8.79366667 12.9208485,8.64566667 13.1921818,8.547 C13.3895152,8.473 13.6793485,8.4175 14.0616818,8.3805 C14.4440152,8.3435 14.8818485,8.325 15.3751818,8.325 C15.5725152,8.325 15.7513485,8.325 15.9116818,8.325 C16.0720152,8.325 16.1768485,8.33733333 16.2261818,8.362 L16.3741818,8.362 C16.5715152,8.362 16.6948485,8.33116667 16.7441818,8.2695 C16.7935152,8.20783333 16.8305152,8.16466667 16.8551818,8.14 C16.9045152,8.066 16.8613485,7.94266667 16.7256818,7.77 C16.5900152,7.59733333 16.4605152,7.474 16.3371818,7.4 C16.2385152,7.326 16.1706818,7.25816667 16.1336818,7.1965 C16.0966818,7.13483333 16.0288485,7.07933333 15.9301818,7.03 C15.6588485,6.90666667 15.3628485,6.74633333 15.0421818,6.549 C15.0175152,6.52433333 15.0051818,6.50583333 15.0051818,6.4935 C15.0051818,6.48116667 14.9928485,6.46266667 14.9681818,6.438 C14.9681818,6.38866667 14.9805152,6.364 15.0051818,6.364 C15.1285152,6.19133333 15.2333485,6.05566667 15.3196818,5.957 C15.4060152,5.85833333 15.5108485,5.75966667 15.6341818,5.661 C15.7081818,5.61166667 15.7821818,5.55616667 15.8561818,5.4945 C15.9301818,5.43283333 16.0165152,5.37733333 16.1151818,5.328 L16.1151818,5.254 C16.1398485,5.18 16.2138485,5.11833333 16.3371818,5.069 L16.4111818,5.069 C16.5098485,5.01966667 16.6085152,4.97033333 16.7071818,4.921 C16.8058485,4.87166667 16.9168485,4.82233333 17.0401818,4.773 C17.4595152,4.625 17.9220152,4.4585 18.4276818,4.2735 C18.9333485,4.0885 19.5315152,3.996 20.2221818,3.996 L20.7031818,3.996 L20.7401818,3.996 C20.7895152,3.996 20.8265152,3.98366667 20.8511818,3.959 C20.8511818,3.959 20.9375152,3.87266667 21.1101818,3.7 C21.2828485,3.52733333 21.5048485,3.33616667 21.7761818,3.1265 C22.0475152,2.91683333 22.3558485,2.701 22.7011818,2.479 C23.0465152,2.257 23.4041818,2.08433333 23.7741818,1.961 C24.3415152,1.813 24.7546818,1.71433333 25.0136818,1.665 C25.2726818,1.61566667 25.5008485,1.591 25.6981818,1.591 L25.8831818,1.591 L25.8831818,1.628 L25.9571818,1.628 L26.0311818,1.628 L26.2901818,1.628 C26.3395152,1.628 26.4011818,1.63416667 26.4751818,1.6465 C26.5491818,1.65883333 26.6231818,1.665 26.6971818,1.665 L26.7341818,1.665 C26.9315152,1.71433333 27.1288485,1.78833333 27.3261818,1.887 C27.8195152,2.05966667 28.3498485,2.368 28.9171818,2.812 C29.0158485,2.86133333 29.1021818,2.923 29.1761818,2.997 C29.2501818,3.071 29.3241818,3.13266667 29.3981818,3.182 L29.3981818,3.219 L29.4351818,3.219 C29.4845152,3.293 29.5461818,3.35466667 29.6201818,3.404 C29.9901818,3.52733333 30.3170152,3.7 30.6006818,3.922 C30.8843485,4.144 31.1371818,4.34133333 31.3591818,4.514 C31.3838485,4.53866667 31.3961818,4.57566667 31.3961818,4.625 C31.3715152,4.625 31.3530152,4.63116667 31.3406818,4.6435 C31.3283485,4.65583333 31.3098485,4.662 31.2851818,4.662 L31.1371818,4.662 L30.9151818,4.662 L30.6931818,4.662 L30.4341818,4.662 C30.3848485,4.68666667 30.2985152,4.699 30.1751818,4.699 C29.9778485,4.699 29.8051818,4.72366667 29.6571818,4.773 C29.5091818,4.82233333 29.4105152,4.94566667 29.3611818,5.143 C29.2871818,5.38966667 29.3241818,5.587 29.4721818,5.735 C29.6201818,5.883 29.7558485,5.994 29.8791818,6.068 C30.1505152,6.26533333 30.3971818,6.53666667 30.6191818,6.882 C30.8411818,7.22733333 31.0631818,7.60966667 31.2851818,8.029 C31.4578485,8.34966667 31.5688485,8.67033333 31.6181818,8.991 C31.6675152,9.31166667 31.6305152,9.59533333 31.5071818,9.842 C31.3838485,10.1133333 31.1988485,10.286 30.9521818,10.36 L30.8041818,10.434 C30.5575152,10.5573333 30.3293485,10.6683333 30.1196818,10.767 C29.9100152,10.8656667 29.7065152,10.9766667 29.5091818,11.1 C29.0898485,11.3713333 28.9295152,11.6673333 29.0281818,11.988 C29.0528485,12.0373333 29.0713485,12.0743333 29.0836818,12.099 C29.0960152,12.1236667 29.1021818,12.1606667 29.1021818,12.21 C29.1268485,12.3333333 29.1700152,12.4813333 29.2316818,12.654 C29.2933485,12.8266667 29.4228485,13.1226667 29.6201818,13.542 C29.6448485,13.5913333 29.6571818,13.6283333 29.6571818,13.653 C29.6571818,13.6776667 29.6695152,13.7146667 29.6941818,13.764 C29.8175152,14.1093333 29.8730152,14.4546667 29.8606818,14.8 C29.8483485,15.1453333 29.8175152,15.429 29.7681818,15.651 C29.6695152,16.4403333 29.4228485,17.0323333 29.0281818,17.427 C28.8801818,17.5996667 28.7075152,17.7353333 28.5101818,17.834 C28.3128485,17.9326667 28.1155152,18.019 27.9181818,18.093 C27.7948485,18.1423333 27.6530152,18.1793333 27.4926818,18.204 C27.3323485,18.2286667 27.1905152,18.241 27.0671818,18.241 C26.8698485,18.241 26.7218485,18.1916667 26.6231818,18.093 C26.4011818,17.9696667 26.1976818,17.834 26.0126818,17.686 C25.8276818,17.538 25.6611818,17.3653333 25.5131818,17.168 C25.2665152,16.8473333 25.1185152,16.465 25.0691818,16.021 C25.0198485,15.799 24.9643485,15.6078333 24.9026818,15.4475 C24.8410152,15.2871667 24.7485152,15.1083333 24.6251818,14.911 C24.5758485,14.8616667 24.5326818,14.8061667 24.4956818,14.7445 C24.4586818,14.6828333 24.4155152,14.6273333 24.3661818,14.578 C24.2921818,14.4546667 24.2181818,14.3375 24.1441818,14.2265 C24.0701818,14.1155 24.0331818,13.9983333 24.0331818,13.875 C24.0331818,13.8503333 24.0578485,13.7393333 24.1071818,13.542 C24.1565152,13.4433333 24.1811818,13.3446667 24.1811818,13.246 C24.3291818,12.4813333 24.2675152,11.84 23.9961818,11.322 C23.8975152,10.9766667 23.7495152,10.6436667 23.5521818,10.323 C23.4781818,10.1996667 23.4103485,10.0886667 23.3486818,9.99 C23.2870152,9.89133333 23.2068485,9.78033333 23.1081818,9.657 C23.0095152,9.60766667 22.9355152,9.583 22.8861818,9.583 C22.8368485,9.583 22.7628485,9.60766667 22.6641818,9.657 C22.6148485,9.70633333 22.5778485,9.75566667 22.5531818,9.805 L22.5531818,9.953 C22.5778485,10.0763333 22.6025152,10.1873333 22.6271818,10.286 C22.6518485,10.3846667 22.6888485,10.4956667 22.7381818,10.619 C22.7875152,10.7176667 22.8306818,10.8286667 22.8676818,10.952 C22.9046818,11.0753333 22.9478485,11.1986667 22.9971818,11.322 C23.1451818,11.6673333 23.2191818,12.0743333 23.2191818,12.543 C23.1698485,12.8883333 23.0588485,13.2336667 22.8861818,13.579 C22.7135152,13.9243333 22.4421818,14.171 22.0721818,14.319 C21.9241818,14.3683333 21.7885152,14.393 21.6651818,14.393 C21.5171818,14.393 21.4185152,14.3683333 21.3691818,14.319 C21.2705152,14.2696667 21.1903485,14.208 21.1286818,14.134 C21.0670152,14.06 20.9991818,13.9736667 20.9251818,13.875 C20.8758485,13.8256667 20.8511818,13.7886667 20.8511818,13.764 C20.6785152,13.542 20.4441818,13.357 20.1481818,13.209 C20.0248485,13.135 19.9015152,13.098 19.7781818,13.098 C19.6301818,13.1473333 19.5438485,13.2213333 19.5191818,13.32 C19.4698485,13.4433333 19.5068485,13.579 19.6301818,13.727 C19.7041818,13.949 19.7966818,14.1648333 19.9076818,14.3745 C20.0186818,14.5841667 20.1358485,14.8 20.2591818,15.022 C20.4071818,15.17 20.5120152,15.3488333 20.5736818,15.5585 C20.6353485,15.7681667 20.6785152,15.984 20.7031818,16.206 C20.7031818,16.4773333 20.6538485,16.6746667 20.5551818,16.798 C20.4565152,16.8966667 20.2715152,16.9706667 20.0001818,17.02 C19.9508485,17.0446667 19.9076818,17.057 19.8706818,17.057 C19.8336818,17.057 19.8028485,17.0693333 19.7781818,17.094 C19.4821818,17.168 19.1615152,17.2543333 18.8161818,17.353 C18.4708485,17.4516667 18.1501818,17.6243333 17.8541818,17.871 L17.6691818,18.056 C17.5458485,18.1546667 17.4471818,18.241 17.3731818,18.315 C17.2991818,18.389 17.2005152,18.4383333 17.0771818,18.463 L17.0031818,18.463 C16.8798485,18.463 16.7688485,18.4383333 16.6701818,18.389 C16.5715152,18.3396667 16.4605152,18.2903333 16.3371818,18.241 C16.2878485,18.1916667 16.2508485,18.167 16.2261818,18.167 C15.8315152,17.8463333 15.2641818,17.686 14.5241818,17.686 C14.0061818,17.686 13.4881818,17.7846667 12.9701818,17.982 C12.8961818,18.0313333 12.8591818,18.1053333 12.8591818,18.204 C12.9085152,18.4013333 13.0318485,18.5308333 13.2291818,18.5925 C13.4265152,18.6541667 13.6238485,18.6973333 13.8211818,18.722 C14.2898485,18.722 14.7276818,18.7713333 15.1346818,18.87 C15.5416818,18.9686667 15.8685152,19.1166667 16.1151818,19.314 C16.4605152,19.61 16.7318485,19.9553333 16.9291818,20.35 C17.1265152,20.7446667 17.2251818,21.1516667 17.2251818,21.571 C17.2251818,21.6696667 17.2621818,21.756 17.3361818,21.83 C17.3855152,21.8793333 17.4471818,21.904 17.5211818,21.904 C17.5951818,21.904 17.6445152,21.8916667 17.6691818,21.867 C17.9651818,21.793 18.1748485,21.5833333 18.2981818,21.238 C18.4708485,20.8186667 18.4585152,20.4116667 18.2611818,20.017 C18.2365152,19.9676667 18.2180152,19.9368333 18.2056818,19.9245 C18.1933485,19.9121667 18.1748485,19.8813333 18.1501818,19.832 C18.1008485,19.7086667 18.0515152,19.6038333 18.0021818,19.5175 C17.9528485,19.4311667 17.9405152,19.351 17.9651818,19.277 C17.9898485,19.203 18.0515152,19.1166667 18.1501818,19.018 C18.3475152,18.8946667 18.5756818,18.7836667 18.8346818,18.685 C19.0936818,18.5863333 19.3711818,18.5 19.6671818,18.426 C19.7165152,18.4013333 19.7535152,18.3828333 19.7781818,18.3705 C19.8028485,18.3581667 19.8645152,18.352 19.9631818,18.352 C20.2345152,18.3026667 20.4935152,18.2471667 20.7401818,18.1855 C20.9868485,18.1238333 21.2088485,17.9943333 21.4061818,17.797 C21.8501818,17.3776667 22.0351818,16.7856667 21.9611818,16.021 L21.9241818,15.984 C21.9241818,15.8606667 21.9241818,15.7558333 21.9241818,15.6695 C21.9241818,15.5831667 21.9488485,15.5153333 21.9981818,15.466 C22.0228485,15.4166667 22.0968485,15.3673333 22.2201818,15.318 L23.0341818,15.133 C23.0835152,15.1083333 23.1328485,15.0836667 23.1821818,15.059 C23.2315152,15.0343333 23.2685152,15.022 23.2931818,15.022 C23.3671818,15.022 23.4411818,15.0713333 23.5151818,15.17 C23.5891818,15.2686667 23.6508485,15.3303333 23.7001818,15.355 C23.7495152,15.503 23.7926818,15.651 23.8296818,15.799 C23.8666818,15.947 23.9098485,16.095 23.9591818,16.243 C24.0331818,16.5636667 24.1195152,16.8658333 24.2181818,17.1495 C24.3168485,17.4331667 24.4771818,17.6983333 24.6991818,17.945 C24.7238485,17.9943333 24.7855152,18.0683333 24.8841818,18.167 C25.0075152,18.2903333 25.1185152,18.4136667 25.2171818,18.537 C25.3158485,18.6603333 25.3405152,18.7713333 25.2911818,18.87 C25.2911818,18.87 25.1925152,18.9193333 24.9951818,19.018 C24.5018485,19.2646667 24.0208485,19.388 23.5521818,19.388 L23.4411818,19.388 L23.4041818,19.351 L23.3301818,19.351 C23.2561818,19.351 23.1821818,19.3756667 23.1081818,19.425 C22.9601818,19.499 22.8615152,19.61 22.8121818,19.758 C22.7628485,19.906 22.7135152,20.0416667 22.6641818,20.165 C22.6641818,20.2143333 22.6580152,20.2513333 22.6456818,20.276 C22.6333485,20.3006667 22.6271818,20.3376667 22.6271818,20.387 C22.4791818,20.831 22.0968485,21.1516667 21.4801818,21.349 C21.3321818,21.3983333 21.1841818,21.4353333 21.0361818,21.46 C20.8881818,21.4846667 20.7278485,21.5216667 20.5551818,21.571 C20.4318485,21.5956667 20.3023485,21.6141667 20.1666818,21.6265 C20.0310152,21.6388333 19.9015152,21.6696667 19.7781818,21.719 C19.5068485,21.8176667 19.2170152,21.9471667 18.9086818,22.1075 C18.6003485,22.2678333 18.3105152,22.4343333 18.0391818,22.607 C17.9898485,22.6316667 17.9281818,22.681 17.8541818,22.755 C17.7061818,22.903 17.5643485,23.0325 17.4286818,23.1435 C17.2930152,23.2545 17.1388485,23.3346667 16.9661818,23.384 C16.9168485,23.384 16.8860152,23.3901667 16.8736818,23.4025 C16.8613485,23.4148333 16.8305152,23.421 16.7811818,23.421 C16.5838485,23.421 16.3618485,23.3716667 16.1151818,23.273 L14.7461818,22.829 C14.6228485,22.7796667 14.5118485,22.7426667 14.4131818,22.718 C14.3145152,22.6933333 14.2281818,22.6563333 14.1541818,22.607 C14.0555152,22.533 14.0431818,22.459 14.1171818,22.385 C14.1418485,22.3603333 14.1541818,22.348 14.1541818,22.348 C14.2775152,22.2986667 14.3145152,22.237 14.2651818,22.163 C14.2158485,22.089 14.1541818,22.052 14.0801818,22.052 L14.0431818,22.052 C13.9445152,22.0766667 13.8581818,22.1198333 13.7841818,22.1815 C13.7101818,22.2431667 13.6485152,22.2986667 13.5991818,22.348 C13.4758485,22.496 13.4758485,22.6933333 13.5991818,22.94 C13.6731818,23.1373333 13.7841818,23.2915 13.9321818,23.4025 C14.0801818,23.5135 14.2281818,23.6183333 14.3761818,23.717 C14.6475152,23.865 14.9311818,23.9945 15.2271818,24.1055 C15.5231818,24.2165 15.8191818,24.3213333 16.1151818,24.42 C16.1151818,24.4693333 16.1830152,24.5063333 16.3186818,24.531 C16.4543485,24.5556667 16.6085152,24.568 16.7811818,24.568 C16.8798485,24.568 16.9661818,24.5618333 17.0401818,24.5495 C17.1141818,24.5371667 17.2005152,24.5186667 17.2991818,24.494 C17.4965152,24.42 17.6876818,24.3151667 17.8726818,24.1795 C18.0576818,24.0438333 18.2241818,23.902 18.3721818,23.754 C18.4215152,23.7046667 18.4708485,23.6676667 18.5201818,23.643 C18.5695152,23.6183333 18.6188485,23.5813333 18.6681818,23.532 C19.2601818,23.014 19.8275152,22.7056667 20.3701818,22.607 L20.4071818,22.607 C20.4318485,22.607 20.4503485,22.6131667 20.4626818,22.6255 C20.4750152,22.6378333 20.4935152,22.644 20.5181818,22.644 C20.5675152,22.6933333 20.5675152,22.7426667 20.5181818,22.792 C20.3208485,23.088 20.1235152,23.3593333 19.9261818,23.606 C19.7288485,23.8526667 19.4821818,24.0746667 19.1861818,24.272 C18.4708485,24.6913333 17.7185152,24.901 16.9291818,24.901 L16.8181818,24.901 L16.7441818,24.901 C16.6455152,24.901 16.4975152,24.9256667 16.3001818,24.975 C16.1768485,25.0243333 16.1151818,25.0736667 16.1151818,25.123 C16.1151818,25.1723333 16.1028485,25.197 16.0781818,25.197 C15.9055152,25.2956667 15.6711818,25.345 15.3751818,25.345 C15.2271818,25.345 15.0668485,25.3326667 14.8941818,25.308 C14.7215152,25.2833333 14.5488485,25.2463333 14.3761818,25.197 C13.9075152,25.0736667 13.4696818,24.9565 13.0626818,24.8455 C12.6556818,24.7345 12.2795152,24.5433333 11.9341818,24.272 C11.5888485,24.0746667 11.2681818,23.7971667 10.9721818,23.4395 C10.6761818,23.0818333 10.5158485,22.6933333 10.4911818,22.274 C10.4911818,22.1753333 10.4911818,22.0766667 10.4911818,21.978 C10.4911818,21.8793333 10.5035152,21.7683333 10.5281818,21.645 C10.5528485,21.5216667 10.5713485,21.4106667 10.5836818,21.312 C10.5960152,21.2133333 10.6021818,21.1146667 10.6021818,21.016 C10.6021818,20.7446667 10.5775152,20.4856667 10.5281818,20.239 C10.4788485,19.9923333 10.4171818,19.7456667 10.3431818,19.499 C10.3185152,19.4003333 10.2938485,19.3016667 10.2691818,19.203 C10.2445152,19.1043333 10.2198485,19.018 10.1951818,18.944 C10.1458485,18.7466667 10.1273485,18.4876667 10.1396818,18.167 C10.1520152,17.8463333 10.2691818,17.5503333 10.4911818,17.279 C10.7378485,16.983 11.0461818,16.835 11.4161818,16.835 C11.4655152,16.835 11.5148485,16.8411667 11.5641818,16.8535 C11.6135152,16.8658333 11.6628485,16.872 11.7121818,16.872 C11.9095152,16.9213333 12.0698485,16.946 12.1931818,16.946 C12.3411818,16.946 12.4336818,16.909 12.4706818,16.835 C12.5076818,16.761 12.5385152,16.687 12.5631818,16.613 L12.5631818,16.465 L12.5631818,16.391 C12.5631818,16.3663333 12.5878485,16.28 12.6371818,16.132 C12.9085152,15.8606667 13.1860152,15.6448333 13.4696818,15.4845 C13.7533485,15.3241667 14.0678485,15.1576667 14.4131818,14.985 L14.6351818,14.874 C14.9065152,14.7013333 15.1840152,14.5163333 15.4676818,14.319 C15.7513485,14.1216667 15.9548485,13.8503333 16.0781818,13.505 C16.1028485,13.3816667 16.1151818,13.246 16.1151818,13.098 C16.1151818,12.95 16.1151818,12.8143333 16.1151818,12.691 C16.1151818,12.543 16.1090152,12.4011667 16.0966818,12.2655 C16.0843485,12.1298333 16.0905152,12.0003333 16.1151818,11.877 C16.1398485,11.7536667 16.2570152,11.6488333 16.4666818,11.5625 C16.6763485,11.4761667 16.9045152,11.396 17.1511818,11.322 C17.4471818,11.248 17.7493485,11.174 18.0576818,11.1 C18.3660152,11.026 18.6681818,10.9766667 18.9641818,10.952 C19.0135152,10.9273333 19.0998485,10.915 19.2231818,10.915 C19.5685152,10.915 19.7658485,10.952 19.8151818,11.026 C19.9385152,11.0753333 20.0988485,11.1493333 20.2961818,11.248 C20.2715152,11.248 20.3085152,11.2726667 20.4071818,11.322 C20.4565152,11.3713333 20.5120152,11.4145 20.5736818,11.4515 C20.6353485,11.4885 20.7155152,11.507 20.8141818,11.507 L20.8881818,11.507 C20.9375152,11.507 20.9868485,11.4823333 21.0361818,11.433 C21.0608485,11.3836667 21.0731818,11.359 21.0731818,11.359 C21.2211818,10.9396667 21.0855152,10.5573333 20.6661818,10.212 C20.4195152,10.0886667 20.2345152,10.0023333 20.1111818,9.953 C20.0865152,9.953 20.0618485,9.94683333 20.0371818,9.9345 C20.0125152,9.92216667 19.9878485,9.916 19.9631818,9.916 C19.8398485,9.86666667 19.7781818,9.82966667 19.7781818,9.805 C19.6795152,9.731 19.6178485,9.52133333 19.5931818,9.176 L19.5931818,8.991 C19.5685152,8.843 19.5500152,8.695 19.5376818,8.547 C19.5253485,8.399 19.4945152,8.26333333 19.4451818,8.14 L19.4081818,8.029 C19.3835152,7.881 19.4143485,7.72683333 19.5006818,7.5665 C19.5870152,7.40616667 19.6671818,7.27666667 19.7411818,7.178 C19.7658485,7.15333333 19.7781818,7.141 19.7781818,7.141 C20.0248485,6.96833333 20.3331818,6.81416667 20.7031818,6.6785 C21.0731818,6.54283333 21.3691818,6.475 21.5911818,6.475 L21.7021818,6.475 C21.9981818,6.59833333 22.2325152,6.74016667 22.4051818,6.9005 C22.5778485,7.06083333 22.7751818,7.31366667 22.9971818,7.659 C23.2191818,8.029 23.5028485,8.28183333 23.8481818,8.4175 C24.1935152,8.55316667 24.5141818,8.64566667 24.8101818,8.695 C25.0568485,8.71966667 25.3220152,8.74433333 25.6056818,8.769 C25.8893485,8.79366667 26.0928485,8.81833333 26.2161818,8.843 L26.2531818,8.843 C26.3025152,8.86766667 26.3888485,8.94166667 26.5121818,9.065 C26.5368485,9.139 26.5738485,9.176 26.6231818,9.176 C26.7218485,9.34866667 26.7465152,9.45966667 26.6971818,9.509 C26.6725152,9.53366667 26.6601818,9.546 26.6601818,9.546 C26.4875152,9.66933333 26.3765152,9.78033333 26.3271818,9.879 C26.2778485,9.953 26.2408485,10.0208333 26.2161818,10.0825 C26.1915152,10.1441667 26.1545152,10.1996667 26.1051818,10.249 C26.0558485,10.3723333 26.0188485,10.4895 25.9941818,10.6005 C25.9695152,10.7115 25.9448485,10.8163333 25.9201818,10.915 C25.9201818,10.9396667 25.9140152,10.9643333 25.9016818,10.989 C25.8893485,11.0136667 25.8831818,11.0506667 25.8831818,11.1 C25.8585152,11.1493333 25.8461818,11.1986667 25.8461818,11.248 C25.7968485,11.396 25.7721818,11.5193333 25.7721818,11.618 C25.7475152,11.6426667 25.7413485,11.7043333 25.7536818,11.803 C25.7660152,11.9016667 25.7721818,12.0126667 25.7721818,12.136 C25.8461818,12.5306667 25.9941818,12.9746667 26.2161818,13.468 C26.2655152,13.5913333 26.3210152,13.6961667 26.3826818,13.7825 C26.4443485,13.8688333 26.4998485,13.9613333 26.5491818,14.06 L26.6971818,14.319 L26.7341818,14.356 C26.7341818,14.3806667 26.7588485,14.4423333 26.8081818,14.541 C26.8575152,14.689 26.8945152,14.837 26.9191818,14.985 C26.9438485,15.133 26.9685152,15.244 26.9931818,15.318 L27.0301818,15.392 C27.0301818,15.54 27.0425152,15.6633333 27.0671818,15.762 C27.0918485,15.8113333 27.1041818,15.8976667 27.1041818,16.021 L27.1041818,16.058 C27.1535152,16.2306667 27.1966818,16.3848333 27.2336818,16.5205 C27.2706818,16.6561667 27.3508485,16.724 27.4741818,16.724 C27.5481818,16.724 27.6221818,16.687 27.6961818,16.613 C27.7455152,16.5143333 27.7701818,16.4526667 27.7701818,16.428 C27.8935152,16.0086667 27.9366818,15.6201667 27.8996818,15.2625 C27.8626818,14.9048333 27.7455152,14.5163333 27.5481818,14.097 C27.5235152,14.0476667 27.4988485,13.9983333 27.4741818,13.949 C27.4495152,13.8996667 27.4248485,13.8503333 27.4001818,13.801 L27.3261818,13.653 L27.2521818,13.505 C27.2028485,13.431 27.1658485,13.3508333 27.1411818,13.2645 C27.1165152,13.1781667 27.0795152,13.098 27.0301818,13.024 C26.9068485,12.6046667 26.8328485,12.2593333 26.8081818,11.988 L26.8081818,11.655 L26.8081818,11.618 C26.8081818,11.5933333 26.8143485,11.5748333 26.8266818,11.5625 C26.8390152,11.5501667 26.8451818,11.5316667 26.8451818,11.507 L26.8451818,11.47 L26.8821818,11.211 C26.9315152,10.9643333 26.9685152,10.7916667 26.9931818,10.693 C27.0178485,10.6436667 27.0301818,10.619 27.0301818,10.619 C27.0301818,10.5696667 27.0548485,10.545 27.1041818,10.545 C27.1535152,10.5203333 27.2521818,10.4833333 27.4001818,10.434 C27.5728485,10.3353333 27.6838485,10.1873333 27.7331818,9.99 C27.7331818,9.94066667 27.7393485,9.88516667 27.7516818,9.8235 C27.7640152,9.76183333 27.7578485,9.70633333 27.7331818,9.657 L27.7331818,9.62 C27.7331818,9.44733333 27.6715152,9.23766667 27.5481818,8.991 L27.4371818,8.769 C27.3878485,8.71966667 27.3385152,8.64566667 27.2891818,8.547 C27.2398485,8.44833333 27.2398485,8.34966667 27.2891818,8.251 C27.2891818,8.20166667 27.3261818,8.177 27.4001818,8.177 C27.4495152,8.12766667 27.4865152,8.103 27.5111818,8.103 C27.5851818,8.029 27.6406818,7.94266667 27.6776818,7.844 C27.7146818,7.74533333 27.7578485,7.63433333 27.8071818,7.511 C27.8318485,7.41233333 27.8565152,7.30133333 27.8811818,7.178 C27.9058485,7.05466667 27.9181818,6.93133333 27.9181818,6.808 C27.9428485,6.512 27.9058485,6.24066667 27.8071818,5.994 C27.7331818,5.82133333 27.6345152,5.67333333 27.5111818,5.55 L27.4741818,5.55 C27.4248485,5.50066667 27.3508485,5.45133333 27.2521818,5.402 C27.2028485,5.37733333 27.1781818,5.365 27.1781818,5.365 L27.1041818,5.328 C27.0301818,5.27866667 26.9376818,5.217 26.8266818,5.143 C26.7156818,5.069 26.5861818,4.97033333 26.4381818,4.847 L26.4011818,4.81 C26.3271818,4.736 26.2778485,4.67433333 26.2531818,4.625 C26.1545152,4.52633333 26.0928485,4.45233333 26.0681818,4.403 C25.9448485,4.20566667 25.9201818,3.996 25.9941818,3.774 C26.0435152,3.67533333 26.0188485,3.60133333 25.9201818,3.552 L25.8091818,3.515 C25.7845152,3.49033333 25.7598485,3.478 25.7351818,3.478 C25.6858485,3.478 25.6365152,3.50266667 25.5871818,3.552 C25.4638485,3.67533333 25.3775152,3.86033333 25.3281818,4.107 C25.3035152,4.181 25.2973485,4.255 25.3096818,4.329 C25.3220152,4.403 25.3281818,4.477 25.3281818,4.551 C25.3775152,4.699 25.4268485,4.83466667 25.4761818,4.958 C25.5255152,5.032 25.5686818,5.11216667 25.6056818,5.1985 C25.6426818,5.28483333 25.6858485,5.365 25.7351818,5.439 C25.7351818,5.46366667 25.7475152,5.476 25.7721818,5.476 L25.7721818,5.513 L25.9941818,5.735 L25.9941818,5.772 L26.2161818,5.994 C26.2655152,6.04333333 26.3210152,6.09266667 26.3826818,6.142 C26.4443485,6.19133333 26.5121818,6.24066667 26.5861818,6.29 C26.6108485,6.29 26.6478485,6.31466667 26.6971818,6.364 C26.6971818,6.364 26.7218485,6.38866667 26.7711818,6.438 C26.7958485,6.438 26.8081818,6.45033333 26.8081818,6.475 L26.8081818,6.512 C26.8821818,6.70933333 26.8945152,6.94366667 26.8451818,7.215 L26.8451818,7.252 C26.8205152,7.30133333 26.8081818,7.35683333 26.8081818,7.4185 C26.8081818,7.48016667 26.7835152,7.53566667 26.7341818,7.585 C26.7095152,7.659 26.6478485,7.74533333 26.5491818,7.844 C26.4505152,7.89333333 26.4011818,7.918 26.4011818,7.918 L26.3641818,7.918 L26.3271818,7.918 L26.2901818,7.918 C26.1668485,7.918 25.9633485,7.90566667 25.6796818,7.881 C25.3960152,7.85633333 25.1555152,7.81933333 24.9581818,7.77 C24.7361818,7.74533333 24.5265152,7.68983333 24.3291818,7.6035 C24.1318485,7.51716667 23.9345152,7.326 23.7371818,7.03 C23.4658485,6.512 23.2068485,6.14816667 22.9601818,5.9385 C22.7135152,5.72883333 22.4175152,5.56233333 22.0721818,5.439 C21.9735152,5.38966667 21.8131818,5.365 21.5911818,5.365 C21.1225152,5.365 20.6476818,5.476 20.1666818,5.698 C19.6856818,5.92 19.3465152,6.08033333 19.1491818,6.179 L19.0751818,6.216 C19.0505152,6.216 19.0381818,6.22833333 19.0381818,6.253 L19.0011818,6.29 C19.0011818,6.29 18.9518485,6.3455 18.8531818,6.4565 C18.7545152,6.5675 18.6620152,6.70933333 18.5756818,6.882 C18.4893485,7.05466667 18.4091818,7.252 18.3351818,7.474 C18.2611818,7.696 18.2488485,7.918 18.2981818,8.14 L18.3351818,8.288 C18.3351818,8.38666667 18.3598485,8.53466667 18.4091818,8.732 C18.4091818,8.78133333 18.4153485,8.81833333 18.4276818,8.843 C18.4400152,8.86766667 18.4461818,8.90466667 18.4461818,8.954 C18.4461818,9.028 18.4585152,9.08966667 18.4831818,9.139 C18.5078485,9.26233333 18.5201818,9.37333333 18.5201818,9.472 C18.5201818,9.57066667 18.4708485,9.64466667 18.3721818,9.694 C18.2735152,9.79266667 18.1625152,9.85433333 18.0391818,9.879 C17.9158485,9.90366667 17.7925152,9.94066667 17.6691818,9.99 L17.6321818,9.99 C17.4595152,10.0393333 17.2930152,10.0825 17.1326818,10.1195 C16.9723485,10.1565 16.8058485,10.1996667 16.6331818,10.249 C16.5838485,10.2736667 16.5468485,10.286 16.5221818,10.286 C16.4975152,10.286 16.4605152,10.2983333 16.4111818,10.323 L16.2261818,10.36 C16.1521818,10.4093333 16.1151818,10.4463333 16.1151818,10.471 C16.0658485,10.5203333 15.9980152,10.5696667 15.9116818,10.619 C15.8253485,10.6683333 15.7451818,10.7176667 15.6711818,10.767 C15.3998485,10.9643333 15.1778485,11.2603333 15.0051818,11.655 C14.9311818,11.655 14.8941818,11.7783333 14.8941818,12.025 C14.8695152,12.1483333 14.8571818,12.3086667 14.8571818,12.506 L14.8571818,12.654 C14.9065152,12.876 14.9065152,13.0486667 14.8571818,13.172 L14.8571818,13.209 L14.8201818,13.246 C14.7955152,13.2706667 14.7708485,13.2953333 14.7461818,13.32 C14.7215152,13.3446667 14.6721818,13.3816667 14.5981818,13.431 C14.4995152,13.505 14.4008485,13.5728333 14.3021818,13.6345 C14.2035152,13.6961667 14.0925152,13.764 13.9691818,13.838 C13.8211818,13.912 13.6916818,13.986 13.5806818,14.06 C13.4696818,14.134 13.3525152,14.1956667 13.2291818,14.245 C13.2045152,14.2696667 13.1921818,14.282 13.1921818,14.282 C13.1428485,14.3066667 13.0935152,14.3436667 13.0441818,14.393 C12.9455152,14.4423333 12.8838485,14.4916667 12.8591818,14.541 C12.7605152,14.5903333 12.6618485,14.689 12.5631818,14.837 C12.4645152,14.985 12.3535152,15.1145 12.2301818,15.2255 C12.1068485,15.3365 11.9711818,15.466 11.8231818,15.614 L11.7491818,15.688 C11.7245152,15.7126667 11.6875152,15.725 11.6381818,15.725 L11.5641818,15.725 L11.5271818,15.725 C11.4778485,15.7003333 11.3915152,15.688 11.2681818,15.688 L11.1941818,15.688 C10.9228485,15.688 10.6885152,15.7373333 10.4911818,15.836 C10.4418485,15.8606667 10.3986818,15.8791667 10.3616818,15.8915 C10.3246818,15.9038333 10.2815152,15.9223333 10.2321818,15.947 C10.0348485,16.0456667 9.88684848,16.095 9.78818182,16.095 L9.75118182,16.095 C9.62784848,16.095 9.49218182,16.0703333 9.34418182,16.021 C9.31951515,15.9963333 9.29484848,15.9778333 9.27018182,15.9655 C9.24551515,15.9531667 9.22084848,15.9346667 9.19618182,15.91 L9.15918182,15.873 C9.03584848,15.7003333 8.88168182,15.5893333 8.69668182,15.54 C8.51168182,15.4906667 8.33284848,15.466 8.16018182,15.466 C8.13551515,15.4413333 8.11084848,15.429 8.08618182,15.429 C8.06151515,15.429 8.04301515,15.4351667 8.03068182,15.4475 C8.01834848,15.4598333 7.98751515,15.466 7.93818182,15.466 C7.86418182,15.5153333 7.80251515,15.6016667 7.75318182,15.725 C7.72851515,15.8236667 7.74701515,15.9346667 7.80868182,16.058 C7.87034848,16.1813333 7.92584848,16.2676667 7.97518182,16.317 L8.08618182,16.428 C8.16018182,16.4773333 8.22801515,16.539 8.28968182,16.613 C8.35134848,16.687 8.40684848,16.7486667 8.45618182,16.798 C8.62884848,16.9706667 8.75218182,17.131 8.82618182,17.279 C8.82618182,17.3036667 8.83851515,17.316 8.86318182,17.316 C8.86318182,17.4146667 8.87551515,17.5873333 8.90018182,17.834 C8.92484848,18.0806667 8.93718182,18.2656667 8.93718182,18.389 C8.93718182,18.5863333 8.94951515,18.7343333 8.97418182,18.833 C8.99884848,18.9316667 9.01118182,19.0426667 9.01118182,19.166 C9.13451515,19.758 9.29484848,20.3006667 9.49218182,20.794 L9.49218182,20.868 C9.44284848,21.0653333 9.41201515,21.238 9.39968182,21.386 C9.38734848,21.534 9.36884848,21.6943333 9.34418182,21.867 C9.34418182,22.163 9.35651515,22.348 9.38118182,22.422 C9.38118182,22.4713333 9.38734848,22.5145 9.39968182,22.5515 C9.41201515,22.5885 9.41818182,22.6316667 9.41818182,22.681 C9.44284848,22.7303333 9.46134848,22.7796667 9.47368182,22.829 C9.48601515,22.8783333 9.50451515,22.9276667 9.52918182,22.977 C9.67718182,23.3963333 9.86218182,23.7786667 10.0841818,24.124 C10.2075152,24.3213333 10.3493485,24.5001667 10.5096818,24.6605 C10.6700152,24.8208333 10.8365152,24.9626667 11.0091818,25.086 C11.0831818,25.1353333 11.1695152,25.1908333 11.2681818,25.2525 C11.3668485,25.3141667 11.4778485,25.3696667 11.6011818,25.419 C11.6011818,25.419 11.6505152,25.4436667 11.7491818,25.493 C11.7985152,25.493 11.8231818,25.5423333 11.8231818,25.641 C11.7491818,25.715 11.7121818,25.752 11.7121818,25.752 L11.1201818,25.752 C10.7748485,25.752 10.4911818,25.7396667 10.2691818,25.715 C10.0471818,25.6903333 9.92384848,25.678 9.89918182,25.678 C9.89918182,25.6533333 9.88684848,25.641 9.86218182,25.641 C9.83751515,25.641 9.81901515,25.6471667 9.80668182,25.6595 C9.79434848,25.6718333 9.77584848,25.678 9.75118182,25.678 C9.43051515,25.8753333 9.10984848,25.974 8.78918182,25.974 C8.56718182,25.974 8.41918182,25.9616667 8.34518182,25.937 C8.27118182,25.937 8.20951515,25.9246667 8.16018182,25.9 L8.08618182,25.9 L8.04918182,25.9 C7.92584848,25.9493333 7.80868182,25.974 7.69768182,25.974 C7.58668182,25.974 7.46951515,25.974 7.34618182,25.974 Z M4.12718182,9.805 C4.07784848,9.805 4.04084848,9.79266667 4.01618182,9.768 C3.96684848,9.71866667 3.96684848,9.66933333 4.01618182,9.62 C4.06551515,9.52133333 4.11484848,9.42883333 4.16418182,9.3425 C4.21351515,9.25616667 4.26284848,9.16366667 4.31218182,9.065 C4.65751515,8.52233333 5.07684848,8.16466667 5.57018182,7.992 C5.57018182,7.96733333 5.58251515,7.94266667 5.60718182,7.918 C5.82918182,7.44933333 6.16218182,6.96833333 6.60618182,6.475 C7.19818182,5.809 7.82718182,5.328 8.49318182,5.032 C8.51784848,5.032 8.55484848,5.00733333 8.60418182,4.958 C8.72751515,4.81 8.83851515,4.66816667 8.93718182,4.5325 C9.03584848,4.39683333 9.15918182,4.24266667 9.30718182,4.07 C9.67718182,3.67533333 10.0471818,3.34233333 10.4171818,3.071 C10.5158485,2.997 10.6885152,2.91066667 10.9351818,2.812 C10.9351818,2.78733333 10.9598485,2.775 11.0091818,2.775 L11.2311818,2.664 L11.2681818,2.664 L11.3421818,2.664 C11.3915152,2.71333333 11.4161818,2.75033333 11.4161818,2.775 C11.4408485,2.89833333 11.4593485,3.02783333 11.4716818,3.1635 C11.4840152,3.29916667 11.5148485,3.45333333 11.5641818,3.626 C11.7121818,4.11933333 11.6628485,4.46466667 11.4161818,4.662 C11.2435152,4.83466667 11.0461818,4.995 10.8241818,5.143 L10.6761818,5.291 C10.6515152,5.31566667 10.6268485,5.33416667 10.6021818,5.3465 C10.5775152,5.35883333 10.5528485,5.37733333 10.5281818,5.402 C10.4788485,5.45133333 10.4233485,5.48216667 10.3616818,5.4945 C10.3000152,5.50683333 10.2445152,5.53766667 10.1951818,5.587 C10.0718485,5.63633333 9.94234848,5.68566667 9.80668182,5.735 C9.67101515,5.78433333 9.54151515,5.83366667 9.41818182,5.883 L9.04818182,5.994 L8.86318182,6.068 L8.78918182,6.105 L8.67818182,6.179 C8.25884848,6.37633333 7.93818182,6.586 7.71618182,6.808 C7.59284848,6.93133333 7.47568182,7.0485 7.36468182,7.1595 C7.25368182,7.2705 7.13651515,7.4 7.01318182,7.548 C6.86518182,7.74533333 6.70484848,7.93033333 6.53218182,8.103 C6.35951515,8.27566667 6.21151515,8.49766667 6.08818182,8.769 C6.03884848,8.89233333 5.98951515,9.05266667 5.94018182,9.25 C5.91551515,9.324 5.90318182,9.398 5.90318182,9.472 C5.90318182,9.546 5.87851515,9.60766667 5.82918182,9.657 C5.82918182,9.70633333 5.79218182,9.731 5.71818182,9.731 L5.68118182,9.731 L5.57018182,9.731 C5.49618182,9.70633333 5.38518182,9.694 5.23718182,9.694 C5.13851515,9.694 5.03984848,9.70016667 4.94118182,9.7125 C4.84251515,9.72483333 4.73151515,9.731 4.60818182,9.731 C4.53418182,9.75566667 4.46018182,9.768 4.38618182,9.768 C4.31218182,9.768 4.23818182,9.78033333 4.16418182,9.805 L4.12718182,9.805 Z M29.8051818,23.569 C29.7558485,23.569 29.6941818,23.5628333 29.6201818,23.5505 C29.5461818,23.5381667 29.4845152,23.532 29.4351818,23.532 C29.3858485,23.532 29.3611818,23.5073333 29.3611818,23.458 C29.3118485,23.4086667 29.3118485,23.3593333 29.3611818,23.31 C29.5338485,23.0633333 29.6818485,22.8845 29.8051818,22.7735 C29.9285152,22.6625 30.0395152,22.5823333 30.1381818,22.533 C30.2861818,22.4343333 30.6068485,22.2678333 31.1001818,22.0335 C31.5935152,21.7991667 32.1608485,21.534 32.8021818,21.238 L33.1351818,21.09 C33.2091818,21.0406667 33.2770152,21.0036667 33.3386818,20.979 C33.4003485,20.9543333 33.4681818,20.9296667 33.5421818,20.905 C33.5668485,20.8803333 33.5791818,20.868 33.5791818,20.868 C33.6285152,20.868 33.6531818,20.8803333 33.6531818,20.905 C33.6778485,20.9296667 33.6901818,20.9666667 33.6901818,21.016 C33.5668485,21.756 33.1598485,22.274 32.4691818,22.57 C32.1238485,22.7673333 31.8031818,22.903 31.5071818,22.977 C31.2111818,23.051 31.0508485,23.088 31.0261818,23.088 C31.0015152,23.088 30.9768485,23.1003333 30.9521818,23.125 C30.6068485,23.421 30.2245152,23.569 29.8051818,23.569 Z M3.23918182,24.161 L3.16518182,24.161 C2.89384848,24.0376667 2.63484848,23.8526667 2.38818182,23.606 C2.14151515,23.3593333 1.80851515,22.9153333 1.38918182,22.274 C1.01918182,21.7806667 0.772515152,21.238 0.649181818,20.646 C0.525848485,20.054 0.464181818,19.5113333 0.464181818,19.018 C0.464181818,18.9933333 0.458015152,18.981 0.445681818,18.981 C0.433348485,18.981 0.427181818,18.9686667 0.427181818,18.944 C0.155848485,18.7466667 0.0140151515,18.4815 0.00168181818,18.1485 C-0.0106515152,17.8155 0.0448484848,17.2666667 0.168181818,16.502 C0.242181818,16.0333333 0.439515152,15.6386667 0.760181818,15.318 L0.834181818,15.318 C0.809515152,14.9233333 0.871181818,14.504 1.01918182,14.06 C1.19184848,13.6653333 1.42618182,13.3816667 1.72218182,13.209 C1.77151515,13.1596667 1.79618182,13.1226667 1.79618182,13.098 C1.84551515,12.9253333 1.89484848,12.7588333 1.94418182,12.5985 C1.99351515,12.4381667 2.05518182,12.284 2.12918182,12.136 C2.12918182,12.1113333 2.13534848,12.0928333 2.14768182,12.0805 C2.16001515,12.0681667 2.16618182,12.0496667 2.16618182,12.025 L2.20318182,11.988 C2.37584848,11.766 2.58551515,11.655 2.83218182,11.655 C3.00484848,11.5316667 3.16518182,11.4268333 3.31318182,11.3405 C3.46118182,11.2541667 3.59684848,11.1863333 3.72018182,11.137 C3.76951515,11.1123333 3.80034848,11.1 3.81268182,11.1 C3.82501515,11.1 3.85584848,11.0876667 3.90518182,11.063 L3.94218182,11.063 C3.99151515,11.0383333 4.06551515,11.026 4.16418182,11.026 L4.20118182,10.989 C4.29984848,10.989 4.38618182,10.9828333 4.46018182,10.9705 C4.53418182,10.9581667 4.63284848,10.9396667 4.75618182,10.915 L5.23718182,10.915 L5.42218182,10.915 L5.57018182,10.915 L5.57018182,10.952 C5.66884848,10.9766667 5.75518182,10.9951667 5.82918182,11.0075 C5.90318182,11.0198333 5.98951515,11.026 6.08818182,11.026 L6.16218182,11.026 C6.31018182,11.026 6.43351515,11.0136667 6.53218182,10.989 C6.60618182,10.9643333 6.71718182,10.9026667 6.86518182,10.804 C6.98851515,10.6806667 7.06251515,10.5573333 7.08718182,10.434 C7.11184848,10.36 7.12418182,10.249 7.12418182,10.101 L7.12418182,9.99 L7.12418182,9.953 C7.12418182,9.90366667 7.11801515,9.87283333 7.10568182,9.8605 C7.09334848,9.84816667 7.08718182,9.81733333 7.08718182,9.768 C7.08718182,9.71866667 7.09334848,9.6755 7.10568182,9.6385 C7.11801515,9.6015 7.12418182,9.55833333 7.12418182,9.509 C7.17351515,9.38566667 7.22901515,9.2685 7.29068182,9.1575 C7.35234848,9.0465 7.42018182,8.92933333 7.49418182,8.806 C7.56818182,8.68266667 7.64218182,8.5655 7.71618182,8.4545 C7.79018182,8.3435 7.87651515,8.23866667 7.97518182,8.14 C8.17251515,7.992 8.36368182,7.83783333 8.54868182,7.6775 C8.73368182,7.51716667 8.88784848,7.4 9.01118182,7.326 L9.08518182,7.326 L9.15918182,7.289 L9.30718182,7.215 L9.78818182,7.067 C10.0841818,6.993 10.4048485,6.882 10.7501818,6.734 C10.8241818,6.68466667 10.9043485,6.6415 10.9906818,6.6045 C11.0770152,6.5675 11.1571818,6.52433333 11.2311818,6.475 C11.2805152,6.45033333 11.3236818,6.42566667 11.3606818,6.401 C11.3976818,6.37633333 11.4408485,6.33933333 11.4901818,6.29 L11.6751818,6.142 C11.7985152,6.04333333 11.9218485,5.9385 12.0451818,5.8275 C12.1685152,5.7165 12.2918485,5.57466667 12.4151818,5.402 C12.5631818,5.05666667 12.6618485,4.72366667 12.7111818,4.403 C12.7358485,4.255 12.7420152,4.0885 12.7296818,3.9035 C12.7173485,3.7185 12.6865152,3.515 12.6371818,3.293 C12.6371818,3.24366667 12.6310152,3.19433333 12.6186818,3.145 C12.6063485,3.09566667 12.6001818,3.04633333 12.6001818,2.997 C12.5755152,2.89833333 12.5631818,2.80583333 12.5631818,2.7195 C12.5631818,2.63316667 12.5508485,2.553 12.5261818,2.479 C12.5261818,2.20766667 12.5385152,2.02266667 12.5631818,1.924 C12.6125152,1.72666667 12.7481818,1.52933333 12.9701818,1.332 C13.0441818,1.28266667 13.1243485,1.22716667 13.2106818,1.1655 C13.2970152,1.10383333 13.4018485,1.04833333 13.5251818,0.999 L13.5251818,0.962 C13.9938485,0.789333333 14.4440152,0.653666667 14.8756818,0.555 C15.3073485,0.456333333 15.7205152,0.407 16.1151818,0.407 C16.2631818,0.407 16.3988485,0.419333333 16.5221818,0.444 C16.6455152,0.468666667 16.7565152,0.493333333 16.8551818,0.518 C16.9538485,0.542666667 17.0648485,0.567333333 17.1881818,0.592 L17.2621818,0.592 C17.3361818,0.592 17.3855152,0.567333333 17.4101818,0.518 C17.6815152,0.172666667 18.3351818,0 19.3711818,0 C19.6425152,0 20.0125152,0.0185 20.4811818,0.0555 C20.9498485,0.0925 21.5048485,0.160333333 22.1461818,0.259 L22.3311818,0.259 C22.4051818,0.259 22.4421818,0.308333333 22.4421818,0.407 C22.4421818,0.481 22.4051818,0.518 22.3311818,0.518 C22.3065152,0.542666667 22.2695152,0.555 22.2201818,0.555 C21.8748485,0.604333333 21.5665152,0.678333333 21.2951818,0.777 C21.0238485,0.875666667 20.7771818,0.986666667 20.5551818,1.11 C20.4071818,1.184 20.2715152,1.28266667 20.1481818,1.406 C20.0248485,1.52933333 19.9015152,1.65266667 19.7781818,1.776 L19.7781818,1.813 C18.8655152,1.86233333 18.0021818,2.13366667 17.1881818,2.627 C17.1635152,2.627 17.1388485,2.63933333 17.1141818,2.664 L17.0401818,2.664 L17.0031818,2.664 C16.9045152,2.61466667 16.7811818,2.516 16.6331818,2.368 C16.4851818,2.26933333 16.3495152,2.183 16.2261818,2.109 C16.1768485,2.035 16.0966818,1.9795 15.9856818,1.9425 C15.8746818,1.9055 15.7575152,1.87466667 15.6341818,1.85 C15.4368485,1.80066667 15.3135152,1.776 15.2641818,1.776 C15.1408485,1.776 15.0360152,1.78833333 14.9496818,1.813 C14.8633485,1.83766667 14.7708485,1.87466667 14.6721818,1.924 C14.5981818,1.97333333 14.5611818,2.035 14.5611818,2.109 C14.6105152,2.20766667 14.6598485,2.257 14.7091818,2.257 L15.0421818,2.405 C15.1655152,2.45433333 15.2456818,2.479 15.2826818,2.479 C15.3196818,2.479 15.3628485,2.50366667 15.4121818,2.553 L15.5231818,2.664 C15.6218485,2.71333333 15.6835152,2.75033333 15.7081818,2.775 C15.8808485,2.849 16.0165152,2.96 16.1151818,3.108 L16.1151818,3.145 L16.1151818,3.256 L16.1151818,3.33 C16.0905152,3.35466667 16.0658485,3.37316667 16.0411818,3.3855 C16.0165152,3.39783333 15.9918485,3.41633333 15.9671818,3.441 C15.9425152,3.441 15.9240152,3.44716667 15.9116818,3.4595 C15.8993485,3.47183333 15.8808485,3.478 15.8561818,3.478 C15.4861818,3.7 15.1531818,3.922 14.8571818,4.144 C14.5611818,4.34133333 14.2775152,4.54483333 14.0061818,4.7545 C13.7348485,4.96416667 13.4758485,5.20466667 13.2291818,5.476 C13.1551818,5.50066667 13.1058485,5.55 13.0811818,5.624 C12.8838485,5.846 12.7235152,6.08033333 12.6001818,6.327 C12.4768485,6.57366667 12.3658485,6.845 12.2671818,7.141 L12.2671818,7.178 C12.2671818,7.20266667 12.2548485,7.215 12.2301818,7.215 C12.2301818,7.26433333 12.2055152,7.289 12.1561818,7.289 C11.5148485,7.53566667 10.9598485,7.78233333 10.4911818,8.029 C10.0225152,8.27566667 9.57851515,8.60866667 9.15918182,9.028 C9.03584848,9.22533333 8.92484848,9.45966667 8.82618182,9.731 C8.72751515,10.0023333 8.64118182,10.2736667 8.56718182,10.545 C8.54251515,10.545 8.53018182,10.582 8.53018182,10.656 C8.40684848,11.0013333 8.30818182,11.1986667 8.23418182,11.248 C8.20951515,11.2726667 8.12318182,11.3343333 7.97518182,11.433 C7.70384848,11.5563333 7.40784848,11.7043333 7.08718182,11.877 C6.76651515,12.0496667 6.49518182,12.2346667 6.27318182,12.432 C5.95251515,12.728 5.68118182,13.0363333 5.45918182,13.357 C5.23718182,13.6776667 5.02751515,13.986 4.83018182,14.282 C4.80551515,14.282 4.79318182,14.3066667 4.79318182,14.356 L4.75618182,14.393 C4.73151515,14.4423333 4.66984848,14.5163333 4.57118182,14.615 C4.52184848,14.7136667 4.48484848,14.7753333 4.46018182,14.8 C4.41084848,14.8986667 4.36151515,14.9911667 4.31218182,15.0775 C4.26284848,15.1638333 4.21351515,15.244 4.16418182,15.318 C4.06551515,15.392 3.97918182,15.5153333 3.90518182,15.688 C3.83118182,15.8606667 3.75718182,16.0456667 3.68318182,16.243 C3.63384848,16.4403333 3.59068182,16.6253333 3.55368182,16.798 C3.51668182,16.9706667 3.47351515,17.1556667 3.42418182,17.353 C3.39951515,17.4516667 3.38101515,17.538 3.36868182,17.612 C3.35634848,17.686 3.33784848,17.7723333 3.31318182,17.871 C3.31318182,17.871 3.27618182,17.908 3.20218182,17.982 L3.16518182,17.982 C3.14051515,17.982 3.10351515,17.9573333 3.05418182,17.908 C3.00484848,17.8093333 2.94934848,17.6921667 2.88768182,17.5565 C2.82601515,17.4208333 2.78284848,17.2913333 2.75818182,17.168 C2.63484848,16.724 2.69651515,16.3046667 2.94318182,15.91 C2.96784848,15.8113333 3.01718182,15.725 3.09118182,15.651 C3.11584848,15.6016667 3.14051515,15.5585 3.16518182,15.5215 C3.18984848,15.4845 3.21451515,15.4413333 3.23918182,15.392 C3.41184848,15.1946667 3.52284848,14.948 3.57218182,14.652 C3.62151515,14.356 3.65851515,14.0723333 3.68318182,13.801 C3.68318182,13.6776667 3.65851515,13.5913333 3.60918182,13.542 C3.55984848,13.4186667 3.47351515,13.357 3.35018182,13.357 C3.27618182,13.357 3.22684848,13.3693333 3.20218182,13.394 C3.15284848,13.4186667 3.11584848,13.4556667 3.09118182,13.505 C3.06651515,13.5543333 3.05418182,13.6036667 3.05418182,13.653 C2.98018182,14.171 2.77051515,14.6643333 2.42518182,15.133 C2.37584848,15.1823333 2.33884848,15.2255 2.31418182,15.2625 C2.28951515,15.2995 2.25251515,15.318 2.20318182,15.318 C2.00584848,15.466 1.85784848,15.7003333 1.75918182,16.021 C1.68518182,16.2183333 1.64201515,16.4218333 1.62968182,16.6315 C1.61734848,16.8411667 1.62351515,17.057 1.64818182,17.279 C1.69751515,17.5996667 1.79618182,17.9018333 1.94418182,18.1855 C2.09218182,18.4691667 2.27718182,18.7096667 2.49918182,18.907 C2.52384848,18.907 2.54234848,18.9131667 2.55468182,18.9255 C2.56701515,18.9378333 2.58551515,18.944 2.61018182,18.944 C2.70884848,18.9686667 2.77051515,19.018 2.79518182,19.092 L2.79518182,19.129 L2.79518182,19.277 C2.69651515,19.6963333 2.62251515,20.1711667 2.57318182,20.7015 C2.52384848,21.2318333 2.56084848,21.756 2.68418182,22.274 C2.73351515,22.3973333 2.78901515,22.5145 2.85068182,22.6255 C2.91234848,22.7365 2.96784848,22.866 3.01718182,23.014 C3.06651515,23.0633333 3.09118182,23.1003333 3.09118182,23.125 C3.14051515,23.1743333 3.16518182,23.2113333 3.16518182,23.236 C3.16518182,23.2606667 3.17751515,23.273 3.20218182,23.273 C3.20218182,23.3963333 3.21451515,23.5135 3.23918182,23.6245 C3.26384848,23.7355 3.30084848,23.8526667 3.35018182,23.976 C3.37484848,24.0253333 3.36251515,24.0746667 3.31318182,24.124 C3.31318182,24.1486667 3.28851515,24.161 3.23918182,24.161 Z" id="Shape"></path>
            </g>
        </g>
    </g>
</svg>