<?xml version="1.0" encoding="UTF-8"?>
<svg width="48px" height="48px" viewBox="0 0 48 48" version="1.1" xmlns="http://www.w3.org/2000/svg" xmlns:xlink="http://www.w3.org/1999/xlink">
    <title>will</title>
    <g id="Page-1" stroke="none" stroke-width="1" fill="none" fill-rule="evenodd">
        <g id="will" fill="#543E3E" fill-rule="nonzero">
            <g id="" transform="translate(13.133385, 10.561600)">
                <path d="M23.5966154,13.5144 C23.9326154,13.9944 24.0886154,14.3784 24.0646154,14.6664 C24.0166154,14.9544 23.7646154,15.2424 23.3086154,15.5304 C22.9486154,15.9144 22.7326154,16.2144 22.6606154,16.4304 C22.5886154,16.6704 22.6366154,16.9824 22.8046154,17.3664 C22.9246154,17.6784 22.9486154,17.9904 22.8766154,18.3024 C22.8286154,18.4944 22.7806154,18.6684 22.7326154,18.8244 C22.6846154,18.9804 22.6366154,19.1424 22.5886154,19.3104 C22.5166154,19.7424 22.4086154,20.0784 22.2646154,20.3184 C22.0966154,20.6064 22.0006154,20.8464 21.9766154,21.0384 C21.9766154,21.7584 21.7846154,22.3224 21.4006154,22.7304 C20.9926154,23.2104 20.4166154,23.4504 19.6726154,23.4504 C19.1926154,23.4504 18.6586154,23.4324 18.0706154,23.3964 C17.4826154,23.3604 16.9366154,23.3064 16.4326154,23.2344 C15.9286154,23.1624 15.4246154,23.1024 14.9206154,23.0544 C14.4166154,23.0064 13.8406154,22.9584 13.1926154,22.9104 C13.0726154,22.9104 12.9166154,22.8864 12.7246154,22.8384 C12.6286154,22.8384 12.4846154,22.8144 12.2926154,22.7664 C12.2926154,22.8144 12.2806154,22.8384 12.2566154,22.8384 C12.2086154,22.8864 12.1846154,22.9224 12.1846154,22.9464 C12.4006154,23.1864 12.6166154,23.3964 12.8326154,23.5764 C13.0486154,23.7564 13.2646154,23.9184 13.4806154,24.0624 C13.8646154,24.2064 14.1646154,24.3444 14.3806154,24.4764 C14.5966154,24.6084 14.8126154,24.7584 15.0286154,24.9264 C14.8846154,25.3344 14.7286154,25.7184 14.5606154,26.0784 C14.4886154,26.2704 14.4106154,26.4744 14.3266154,26.6904 C14.2426154,26.9064 14.1526154,27.1344 14.0566154,27.3744 C13.8406154,27.5424 13.6726154,27.6624 13.5526154,27.7344 C13.4566154,27.8304 13.3486154,27.8784 13.2286154,27.8784 C11.3566154,27.9984 9.43661538,27.9264 7.46861538,27.6624 C5.54861538,27.3504 3.55661538,26.8704 1.49261538,26.2224 C1.75661538,25.5264 2.02061538,24.8304 2.28461538,24.1344 C2.54861538,23.4384 2.78861538,22.7664 3.00461538,22.1184 C3.26861538,21.3264 3.44861538,20.4624 3.54461538,19.5264 C3.73661538,18.6864 3.53261538,17.9304 2.93261538,17.2584 C1.66061538,15.8904 0.832615385,14.5464 0.448615385,13.2264 C0.0166153846,11.7144 -0.103384615,10.3104 0.0886153846,9.0144 C0.256615385,7.5984 0.724615385,6.2904 1.49261538,5.0904 C2.45261538,3.7224 3.59261538,2.6304 4.91261538,1.8144 C6.18461538,0.9984 7.48061538,0.4584 8.80061538,0.1944 C10.3126154,-0.0216 11.7166154,-0.0576 13.0126154,0.0864 C14.5006154,0.2544 15.8206154,0.6984 16.9726154,1.4184 C18.2926154,1.9464 19.3246154,2.6544 20.0686154,3.5424 C20.6206154,4.4064 21.0646154,5.2224 21.4006154,5.9904 C21.6886154,6.7824 21.7726154,7.6584 21.6526154,8.6184 C21.5566154,9.2664 21.5806154,9.8184 21.7246154,10.2744 C21.7966154,10.5144 21.8866154,10.7484 21.9946154,10.9764 C22.1026154,11.2044 22.2526154,11.4384 22.4446154,11.6784 C22.7086154,12.1104 22.9006154,12.4464 23.0206154,12.6864 C23.1166154,12.8304 23.2066154,12.9744 23.2906154,13.1184 C23.3746154,13.2624 23.4766154,13.3944 23.5966154,13.5144 Z M12.9766154,9.3744 C13.1206154,9.3984 13.2706154,9.4164 13.4266154,9.4284 C13.5826154,9.4404 13.8166154,9.4584 14.1286154,9.4824 C14.3926154,9.4824 14.6686154,9.4224 14.9566154,9.3024 C15.3166154,9.1104 15.7006154,8.8824 16.1086154,8.6184 C16.3006154,8.4264 16.4986154,8.2464 16.7026154,8.0784 C16.9066154,7.9104 17.1046154,7.7784 17.2966154,7.6824 C18.0646154,7.2984 18.5206154,6.8424 18.6646154,6.3144 C18.8086154,5.7144 18.6886154,5.0784 18.3046154,4.4064 C17.2966154,3.2304 16.1086154,2.4144 14.7406154,1.9584 C13.4206154,1.5984 12.1846154,1.4904 11.0326154,1.6344 C10.4806154,1.7064 9.89861538,1.8204 9.28661538,1.9764 C8.67461538,2.1324 8.12861538,2.3184 7.64861538,2.5344 C6.54461538,3.0144 5.59661538,3.6024 4.80461538,4.2984 C4.03661538,5.1384 3.42461538,5.9304 2.96861538,6.6744 C2.17661538,7.7784 1.79261538,8.8704 1.81661538,9.9504 C1.81661538,10.4784 1.85861538,11.0424 1.94261538,11.6424 C2.02661538,12.2424 2.16461538,12.8064 2.35661538,13.3344 C2.38061538,13.4304 2.50061538,13.5744 2.71661538,13.7664 C2.93261538,13.9344 3.08861538,14.0544 3.18461538,14.1264 C3.37661538,14.1744 3.54461538,14.1984 3.68861538,14.1984 C3.80861538,14.2224 3.91061538,14.2284 3.99461538,14.2164 C4.07861538,14.2044 4.16861538,14.1864 4.26461538,14.1624 C4.31261538,14.1624 4.36061538,14.0544 4.40861538,13.8384 L4.40861538,13.2624 C4.24061538,12.3504 4.22861538,11.5584 4.37261538,10.8864 C4.51661538,10.2384 4.88861538,9.6864 5.48861538,9.2304 C5.99261538,8.9184 6.52061538,8.6664 7.07261538,8.4744 C7.33661538,8.2824 7.59461538,8.1264 7.84661538,8.0064 C8.09861538,7.8864 8.36861538,7.7664 8.65661538,7.6464 C8.60861538,7.7664 8.56061538,7.8744 8.51261538,7.9704 C8.46461538,8.0664 8.41661538,8.1864 8.36861538,8.3304 C8.32061538,8.4744 8.27261538,8.5944 8.22461538,8.6904 C8.17661538,8.7864 8.12861538,8.8944 8.08061538,9.0144 C8.44061538,8.8224 8.71661538,8.6904 8.90861538,8.6184 C9.17261538,8.4264 9.41261538,8.2584 9.62861538,8.1144 C9.72461538,8.0664 9.86261538,8.0424 10.0426154,8.0424 C10.2226154,8.0424 10.3726154,8.0424 10.4926154,8.0424 C10.6126154,8.0904 10.7266154,8.1144 10.8346154,8.1144 C10.9426154,8.1144 11.0446154,8.1384 11.1406154,8.1864 C11.1886154,8.2824 11.2966154,8.3304 11.4646154,8.3304 C11.5606154,8.3304 11.6806154,8.3784 11.8246154,8.4744 C11.9206154,8.5464 11.9686154,8.6304 11.9686154,8.7264 C12.0166154,8.7984 11.9686154,8.9424 11.8246154,9.1584 C11.9446154,9.2064 12.0526154,9.2364 12.1486154,9.2484 C12.2446154,9.2604 12.3406154,9.2904 12.4366154,9.3384 C12.5566154,9.3624 12.6586154,9.3744 12.7426154,9.3744 C12.8266154,9.3744 12.9046154,9.3744 12.9766154,9.3744 Z M20.3206154,9.3024 C20.0566154,9.4224 19.7986154,9.5304 19.5466154,9.6264 C19.2946154,9.7224 19.0366154,9.8304 18.7726154,9.9504 C18.5326154,10.0704 18.2506154,10.1904 17.9266154,10.3104 C17.6026154,10.4304 17.2846154,10.5624 16.9726154,10.7064 C17.2846154,10.8264 17.6026154,10.9404 17.9266154,11.0484 C18.2506154,11.1564 18.5326154,11.2704 18.7726154,11.3904 C19.0366154,11.5104 19.2946154,11.6244 19.5466154,11.7324 C19.7986154,11.8404 20.0566154,12.0384 20.3206154,12.3264 L20.3206154,9.3024 Z" id="Shape"></path>
            </g>
        </g>
    </g>
</svg>