<?xml version="1.0" encoding="UTF-8"?>
<svg width="48px" height="48px" viewBox="0 0 48 48" version="1.1" xmlns="http://www.w3.org/2000/svg" xmlns:xlink="http://www.w3.org/1999/xlink">
    <title>lore</title>
    <g id="Page-1" stroke="none" stroke-width="1" fill="none" fill-rule="evenodd">
        <g id="lore" fill="#543E3E" fill-rule="nonzero">
            <g id="A" transform="translate(7.176000, 9.760000)">
                <path d="M29.44,0 C29.5893333,0 29.696,0.032 29.76,0.096 C29.8666667,0.266666667 29.9626667,0.538666667 30.048,0.912 C30.1333333,1.28533333 30.2293333,1.57866667 30.336,1.792 C30.5066667,1.77066667 30.6613333,1.728 30.8,1.664 C30.9386667,1.6 31.1146667,1.55733333 31.328,1.536 C31.392,1.62133333 31.472,1.68 31.568,1.712 C31.664,1.744 31.744,1.78133333 31.808,1.824 C31.9786667,1.97333333 32.144,2.10666667 32.304,2.224 C32.464,2.34133333 32.608,2.464 32.736,2.592 L32.736,2.624 C32.544,2.688 32.3573333,2.768 32.176,2.864 C31.9946667,2.96 31.8293333,3.04 31.68,3.104 C31.2106667,3.27466667 30.752,3.46133333 30.304,3.664 C29.856,3.86666667 29.3866667,4.096 28.896,4.352 C27.744,4.84266667 26.608,5.30133333 25.488,5.728 C24.368,6.15466667 23.232,6.61333333 22.08,7.104 C21.056,7.53066667 20.048,7.95733333 19.056,8.384 C18.064,8.81066667 16.992,9.17333333 15.84,9.472 C15.5413333,9.51466667 15.2373333,9.504 14.928,9.44 C14.6186667,9.376 14.3786667,9.30133333 14.208,9.216 C13.7173333,9.088 13.232,8.944 12.752,8.784 C12.272,8.624 11.7866667,8.46933333 11.296,8.32 C10.528,8.17066667 9.74933333,8.02666667 8.96,7.888 C8.17066667,7.74933333 7.38133333,7.616 6.592,7.488 C6.4,7.44533333 6.20266667,7.41333333 6,7.392 C5.79733333,7.37066667 5.57866667,7.34933333 5.344,7.328 C4.93866667,7.22133333 4.53333333,7.15733333 4.128,7.136 C3.72266667,7.11466667 3.31733333,7.05066667 2.912,6.944 C2.528,6.83733333 2.09066667,6.74133333 1.6,6.656 C1.10933333,6.57066667 0.650666667,6.51733333 0.224,6.496 L0.224,6.464 C0.330666667,6.35733333 0.458666667,6.272 0.608,6.208 C0.757333333,6.144 0.885333333,6.06933333 0.992,5.984 C1.12,5.94133333 1.24266667,5.87733333 1.36,5.792 C1.47733333,5.70666667 1.61066667,5.61066667 1.76,5.504 C1.80266667,5.46133333 1.86666667,5.43466667 1.952,5.424 C2.03733333,5.41333333 2.112,5.376 2.176,5.312 C2.176,5.26933333 2.18133333,5.232 2.192,5.2 C2.20266667,5.168 2.208,5.14133333 2.208,5.12 C2.31466667,4.94933333 2.416,4.77333333 2.512,4.592 C2.608,4.41066667 2.70933333,4.23466667 2.816,4.064 C2.85866667,3.95733333 2.896,3.856 2.928,3.76 C2.96,3.664 3.01866667,3.56266667 3.104,3.456 L3.104,3.552 C3.27466667,3.65866667 3.41333333,3.79733333 3.52,3.968 C3.62666667,4.13866667 3.776,4.288 3.968,4.416 C4.13866667,4.58666667 4.33066667,4.72 4.544,4.816 C4.75733333,4.912 4.98133333,4.98133333 5.216,5.024 C5.36533333,5.06666667 5.54133333,5.06666667 5.744,5.024 C5.94666667,4.98133333 6.15466667,4.92266667 6.368,4.848 C6.58133333,4.77333333 6.78933333,4.69866667 6.992,4.624 C7.19466667,4.54933333 7.36,4.49066667 7.488,4.448 C7.808,4.36266667 8.176,4.304 8.592,4.272 C9.008,4.24 9.424,4.22933333 9.84,4.24 C10.256,4.25066667 10.6613333,4.28266667 11.056,4.336 C11.4506667,4.38933333 11.7973333,4.45866667 12.096,4.544 C12.5653333,4.69333333 13.024,4.848 13.472,5.008 C13.92,5.168 14.3573333,5.35466667 14.784,5.568 C14.8906667,5.632 15.056,5.73333333 15.28,5.872 C15.504,6.01066667 15.712,6.048 15.904,5.984 C16.224,5.89866667 16.512,5.76 16.768,5.568 C17.024,5.376 17.2906667,5.19466667 17.568,5.024 C17.9946667,4.768 18.4213333,4.52266667 18.848,4.288 C19.2746667,4.05333333 19.712,3.808 20.16,3.552 C20.3946667,3.40266667 20.64,3.25333333 20.896,3.104 C21.152,2.95466667 21.4293333,2.83733333 21.728,2.752 C21.9626667,2.66666667 22.2453333,2.60266667 22.576,2.56 C22.9066667,2.51733333 23.1893333,2.53866667 23.424,2.624 C23.68,2.688 23.968,2.75733333 24.288,2.832 C24.608,2.90666667 24.9493333,2.89066667 25.312,2.784 C26.2293333,2.592 27.0293333,2.25066667 27.712,1.76 C28.3946667,1.26933333 28.9706667,0.682666667 29.44,0 Z M34.304,6.112 L34.368,6.112 C34.368,6.34666667 34.3466667,6.59733333 34.304,6.864 C34.2613333,7.13066667 34.2186667,7.38133333 34.176,7.616 C34.112,7.97866667 34.0746667,8.34666667 34.064,8.72 C34.0533333,9.09333333 33.9946667,9.45066667 33.888,9.792 C33.888,9.984 33.8773333,10.1973333 33.856,10.432 C33.8346667,10.6666667 33.8133333,10.9013333 33.792,11.136 C33.6426667,11.7333333 33.5466667,12.3626667 33.504,13.024 C33.4613333,13.6853333 33.3546667,14.3146667 33.184,14.912 C33.12,15.296 33.0773333,15.6906667 33.056,16.096 C33.0346667,16.5013333 32.9706667,16.8853333 32.864,17.248 C32.8213333,17.4826667 32.8,17.7066667 32.8,17.92 C32.8,18.1333333 32.7466667,18.3253333 32.64,18.496 C32.4693333,18.7306667 32.2133333,18.9226667 31.872,19.072 C31.5306667,19.2213333 31.2106667,19.3493333 30.912,19.456 C30.1013333,19.8186667 29.2853333,20.1973333 28.464,20.592 C27.6426667,20.9866667 26.8266667,21.3653333 26.016,21.728 C25.6533333,21.8986667 25.28,22.0853333 24.896,22.288 C24.512,22.4906667 24.128,22.6773333 23.744,22.848 C23.3386667,23.04 22.9173333,23.232 22.48,23.424 C22.0426667,23.616 21.632,23.8506667 21.248,24.128 C20.8,24.384 20.3786667,24.6986667 19.984,25.072 C19.5893333,25.4453333 19.1146667,25.7066667 18.56,25.856 C18.24,25.9413333 17.952,25.9413333 17.696,25.856 C17.44,25.7706667 17.2106667,25.648 17.008,25.488 C16.8053333,25.328 16.6133333,25.1573333 16.432,24.976 C16.2506667,24.7946667 16.0746667,24.6506667 15.904,24.544 C15.4986667,24.2666667 15.056,24.0426667 14.576,23.872 C14.096,23.7013333 13.6,23.552 13.088,23.424 C12.576,23.296 12.0533333,23.1733333 11.52,23.056 C10.9866667,22.9386667 10.4533333,22.8053333 9.92,22.656 C9.51466667,22.592 9.11466667,22.528 8.72,22.464 C8.32533333,22.4 7.94666667,22.3146667 7.584,22.208 C7.41333333,22.1653333 7.27466667,22.1386667 7.168,22.128 C7.06133333,22.1173333 6.93333333,22.0693333 6.784,21.984 C6.63466667,21.856 6.52266667,21.712 6.448,21.552 C6.37333333,21.392 6.28266667,21.2266667 6.176,21.056 C5.94133333,20.6506667 5.71733333,20.24 5.504,19.824 C5.29066667,19.408 5.06666667,18.9973333 4.832,18.592 C4.40533333,17.9093333 3.99466667,17.1946667 3.6,16.448 C3.20533333,15.7013333 2.79466667,14.976 2.368,14.272 C2.19733333,14.0586667 2.064,13.8293333 1.968,13.584 C1.872,13.3386667 1.73866667,13.0986667 1.568,12.864 C1.39733333,12.5653333 1.23733333,12.2613333 1.088,11.952 C0.938666667,11.6426667 0.768,11.3386667 0.576,11.04 C0.469333333,10.848 0.362666667,10.6613333 0.256,10.48 C0.149333333,10.2986667 0.064,10.0906667 0,9.856 L0.128,9.856 C0.277333333,9.984 0.48,10.0746667 0.736,10.128 C0.992,10.1813333 1.23733333,10.24 1.472,10.304 C1.89866667,10.4106667 2.33066667,10.512 2.768,10.608 C3.20533333,10.704 3.66933333,10.8053333 4.16,10.912 C4.97066667,11.1466667 5.824,11.36 6.72,11.552 C7.616,11.744 8.46933333,11.9573333 9.28,12.192 C9.536,12.256 9.79733333,12.2986667 10.064,12.32 C10.3306667,12.3413333 10.592,12.4053333 10.848,12.512 C11.1466667,12.6186667 11.4293333,12.7306667 11.696,12.848 C11.9626667,12.9653333 12.2453333,13.0773333 12.544,13.184 C12.9493333,13.3546667 13.3386667,13.4826667 13.712,13.568 C14.0853333,13.6533333 14.4853333,13.76 14.912,13.888 C15.1253333,13.9306667 15.3653333,13.9786667 15.632,14.032 C15.8986667,14.0853333 16.1493333,14.0906667 16.384,14.048 C16.576,13.984 16.7626667,13.8986667 16.944,13.792 C17.1253333,13.6853333 17.2586667,13.5786667 17.344,13.472 C17.3866667,13.408 17.424,13.344 17.456,13.28 C17.488,13.216 17.5253333,13.1733333 17.568,13.152 C17.7813333,12.9813333 18,12.816 18.224,12.656 C18.448,12.496 18.7093333,12.352 19.008,12.224 C20.16,11.7333333 21.3333333,11.2586667 22.528,10.8 C23.7226667,10.3413333 24.9066667,9.86666667 26.08,9.376 C27.0186667,8.94933333 27.9573333,8.57066667 28.896,8.24 C29.8346667,7.90933333 30.7733333,7.552 31.712,7.168 C32.0533333,7.01866667 32.384,6.89066667 32.704,6.784 C33.024,6.67733333 33.312,6.54933333 33.568,6.4 C33.696,6.35733333 33.8293333,6.30933333 33.968,6.256 C34.1066667,6.20266667 34.2186667,6.15466667 34.304,6.112 Z" id="Shape"></path>
            </g>
        </g>
    </g>
</svg>