<?xml version="1.0" encoding="UTF-8"?>
<svg width="48px" height="48px" viewBox="0 0 48 48" version="1.1" xmlns="http://www.w3.org/2000/svg" xmlns:xlink="http://www.w3.org/1999/xlink">
    <title>strength</title>
    <g id="Page-1" stroke="none" stroke-width="1" fill="none" fill-rule="evenodd">
        <g id="strength" fill="#543E3E" fill-rule="nonzero">
            <g id="" transform="translate(5.550000, 10.745000)">
                <path d="M37.389,10.56 C37.785,11.176 37.785,11.792 37.389,12.408 C37.081,12.562 36.817,12.771 36.597,13.035 C36.377,13.321 36.08,13.53 35.706,13.662 C35.112,13.948 34.551,14.3 34.023,14.718 C33.495,15.048 32.945,15.312 32.373,15.51 C31.933,15.73 31.372,15.928 30.69,16.104 C30.096,16.28 29.502,16.28 28.908,16.104 C28.468,15.972 28.127,15.983 27.885,16.137 C27.489,16.291 27.225,16.654 27.093,17.226 C26.895,18.128 26.664,18.975 26.4,19.767 C26.268,20.141 26.1305,20.5535 25.9875,21.0045 C25.8445,21.4555 25.707,21.868 25.575,22.242 C25.509,22.396 25.4595,22.5555 25.4265,22.7205 C25.3935,22.8855 25.355,23.056 25.311,23.232 C25.267,23.43 25.223,23.6225 25.179,23.8095 C25.135,23.9965 25.091,24.222 25.047,24.486 C24.541,24.574 24.013,24.651 23.463,24.717 C22.913,24.783 22.385,24.849 21.879,24.915 C21.373,24.959 20.845,24.9975 20.295,25.0305 C19.745,25.0635 19.228,25.08 18.744,25.08 C18.326,25.08 17.886,25.069 17.424,25.047 C16.962,25.025 16.533,24.992 16.137,24.948 C15.741,24.882 15.345,24.8105 14.949,24.7335 C14.553,24.6565 14.08,24.574 13.53,24.486 C12.804,24.354 12.331,24.112 12.111,23.76 C11.913,23.408 11.825,22.792 11.847,21.912 C12.111,22.066 12.375,22.253 12.639,22.473 C12.749,22.583 12.87,22.6985 13.002,22.8195 C13.134,22.9405 13.266,23.056 13.398,23.166 L13.53,23.1 C13.464,22.99 13.398,22.891 13.332,22.803 C13.266,22.715 13.211,22.627 13.167,22.539 C13.101,22.473 13.0405,22.407 12.9855,22.341 C12.9305,22.275 12.881,22.22 12.837,22.176 C12.177,21.582 11.682,20.867 11.352,20.031 C11.022,19.305 10.736,18.447 10.494,17.457 C10.296,16.841 10.098,16.423 9.9,16.203 C9.68,15.939 9.284,15.862 8.712,15.972 C8.14,16.236 7.524,16.291 6.864,16.137 C6.27,16.005 5.72,15.796 5.214,15.51 C4.906,15.4 4.6035,15.2735 4.3065,15.1305 C4.0095,14.9875 3.663,14.828 3.267,14.652 C2.959,14.476 2.6675,14.2835 2.3925,14.0745 C2.1175,13.8655 1.848,13.684 1.584,13.53 C1.342,13.464 1.166,13.31 1.056,13.068 C0.924,12.782 0.781,12.628 0.627,12.606 C0.539,12.474 0.451,12.353 0.363,12.243 C0.275,12.133 0.209,12.034 0.165,11.946 C0.055,11.792 0,11.638 0,11.484 C0.022,11.396 0.0495,11.3135 0.0825,11.2365 C0.1155,11.1595 0.154,11.077 0.198,10.989 C0.308,10.725 0.495,10.45 0.759,10.164 C1.309,9.174 1.936,8.36 2.64,7.722 C3.014,7.282 3.4375,6.908 3.9105,6.6 C4.3835,6.292 4.851,5.984 5.313,5.676 C5.401,5.61 5.478,5.5385 5.544,5.4615 C5.61,5.3845 5.676,5.324 5.742,5.28 C5.808,5.236 5.8575,5.192 5.8905,5.148 C5.9235,5.104 5.962,5.06 6.006,5.016 C6.094,4.95 6.171,4.8895 6.237,4.8345 C6.303,4.7795 6.358,4.73 6.402,4.686 C6.446,4.642 6.4845,4.6145 6.5175,4.6035 C6.5505,4.5925 6.578,4.565 6.6,4.521 C6.644,4.499 6.688,4.466 6.732,4.422 C6.798,4.378 6.842,4.334 6.864,4.29 C6.886,4.268 7.029,4.158 7.293,3.96 C7.425,3.894 7.5405,3.828 7.6395,3.762 C7.7385,3.696 7.843,3.641 7.953,3.597 C8.063,3.553 8.173,3.5145 8.283,3.4815 C8.393,3.4485 8.503,3.41 8.613,3.366 C8.833,3.3 9.009,3.267 9.141,3.267 L9.57,3.168 C9.68,3.102 9.79,3.08 9.9,3.102 C10.076,3.146 10.252,3.168 10.428,3.168 L10.626,3.069 L10.89,3.168 C10.934,3.168 11.022,3.135 11.154,3.069 C11.264,3.047 11.385,3.08 11.517,3.168 L11.616,3.267 L11.649,3.3 L11.649,3.333 L11.847,3.432 C11.979,3.52 12.056,3.63 12.078,3.762 C12.122,3.894 12.1495,4.037 12.1605,4.191 C12.1715,4.345 12.199,4.488 12.243,4.62 C12.265,4.774 12.2815,4.8895 12.2925,4.9665 C12.3035,5.0435 12.309,5.104 12.309,5.148 C12.309,5.192 12.3035,5.247 12.2925,5.313 C12.2815,5.379 12.265,5.467 12.243,5.577 C12.199,5.753 12.067,5.885 11.847,5.973 C11.935,5.973 12.001,5.995 12.045,6.039 C12.199,6.105 12.276,6.204 12.276,6.336 C12.188,6.468 12.122,6.545 12.078,6.567 C12.056,6.589 11.946,6.6 11.748,6.6 C11.55,6.644 11.429,6.655 11.385,6.633 C11.319,6.633 11.253,6.567 11.187,6.435 L11.088,6.435 L10.989,6.435 L10.89,6.435 C10.626,6.435 10.153,6.325 9.471,6.105 C9.383,6.061 9.3005,6.028 9.2235,6.006 C9.1465,5.984 9.075,5.951 9.009,5.907 C8.877,5.841 8.778,5.808 8.712,5.808 L8.58,5.808 C8.536,5.808 8.47,5.83 8.382,5.874 C8.338,5.896 8.217,5.984 8.019,6.138 C7.953,6.204 7.8815,6.281 7.8045,6.369 C7.7275,6.457 7.634,6.567 7.524,6.699 L7.557,6.699 C7.447,6.831 7.3315,6.963 7.2105,7.095 C7.0895,7.227 6.963,7.392 6.831,7.59 C6.589,7.876 6.446,8.107 6.402,8.283 C6.248,8.569 6.149,8.833 6.105,9.075 C6.061,9.207 6.017,9.339 5.973,9.471 C5.929,9.603 5.874,9.735 5.808,9.867 C5.764,9.977 5.709,10.0925 5.643,10.2135 C5.577,10.3345 5.5,10.45 5.412,10.56 C5.28,10.912 5.082,11.165 4.818,11.319 C5.346,10.879 5.863,10.626 6.369,10.56 C7.051,10.494 7.612,10.516 8.052,10.626 C8.536,10.868 9.031,11.121 9.537,11.385 C9.779,11.517 10.0485,11.6655 10.3455,11.8305 C10.6425,11.9955 10.923,12.166 11.187,12.342 C11.143,12.232 11.088,12.1275 11.022,12.0285 C10.956,11.9295 10.901,11.836 10.857,11.748 C10.813,11.682 10.747,11.616 10.659,11.55 C10.571,11.484 10.494,11.429 10.428,11.385 C10.274,11.275 10.131,11.187 9.999,11.121 C10.153,11.077 10.3235,11.044 10.5105,11.022 C10.6975,11 10.846,10.989 10.956,10.989 C11.176,10.967 11.385,10.967 11.583,10.989 C11.737,10.989 11.924,11.011 12.144,11.055 C12.43,11.121 12.683,11.209 12.903,11.319 C13.123,11.429 13.332,11.572 13.53,11.748 C13.97,12.144 14.322,12.309 14.586,12.243 C14.894,12.177 15.169,11.968 15.411,11.616 C15.675,11.462 15.884,11.308 16.038,11.154 C16.236,10.846 16.302,10.483 16.236,10.065 C16.236,9.735 16.203,9.383 16.137,9.009 C16.115,8.811 16.0985,8.6295 16.0875,8.4645 C16.0765,8.2995 16.049,8.14 16.005,7.986 C15.983,7.942 15.972,7.898 15.972,7.854 C15.972,7.81 15.961,7.766 15.939,7.722 C15.939,7.634 15.917,7.469 15.873,7.227 L15.873,7.095 C15.851,7.095 15.84,7.106 15.84,7.128 C15.818,7.15 15.807,7.1665 15.807,7.1775 C15.807,7.1885 15.796,7.205 15.774,7.227 C15.774,7.315 15.752,7.315 15.708,7.227 C15.554,7.161 15.466,7.051 15.444,6.897 C15.4,6.677 15.378,6.578 15.378,6.6 C15.026,6.248 14.839,5.929 14.817,5.643 C14.795,5.357 14.883,5.038 15.081,4.686 C15.213,4.62 15.301,4.642 15.345,4.752 C15.389,4.84 15.411,4.851 15.411,4.785 L15.411,3.927 C15.411,3.773 15.411,3.652 15.411,3.564 C15.411,3.476 15.422,3.399 15.444,3.333 C15.444,3.179 15.477,3.014 15.543,2.838 C15.697,1.958 15.983,1.309 16.401,0.891 C16.819,0.363 17.567,0.066 18.645,0 C19.327,0 19.899,0.231 20.361,0.693 C20.955,1.089 21.34,1.76 21.516,2.706 C21.538,2.904 21.571,3.08 21.615,3.234 C21.637,3.3 21.648,3.476 21.648,3.762 L21.648,4.389 C21.604,4.543 21.571,4.631 21.549,4.653 L21.549,4.686 C21.571,4.73 21.582,4.752 21.582,4.752 L21.615,4.752 C21.659,4.708 21.681,4.686 21.681,4.686 L21.78,4.587 C21.846,4.587 21.89,4.609 21.912,4.653 C22.066,4.873 22.143,5.181 22.143,5.577 C22.099,5.951 21.945,6.292 21.681,6.6 C21.659,6.666 21.626,6.743 21.582,6.831 C21.538,6.919 21.516,6.985 21.516,7.029 C21.516,7.095 21.494,7.128 21.45,7.128 C21.296,7.15 21.23,7.128 21.252,7.062 C21.252,7.018 21.219,7.073 21.153,7.227 C21.131,7.403 21.109,7.5515 21.087,7.6725 C21.065,7.7935 21.043,7.931 21.021,8.085 C20.999,8.195 20.9825,8.327 20.9715,8.481 C20.9605,8.635 20.955,8.8 20.955,8.976 C20.955,9.394 20.999,9.823 21.087,10.263 C21.087,10.263 21.109,10.307 21.153,10.395 C21.153,10.505 21.186,10.593 21.252,10.659 C21.274,10.835 21.329,10.967 21.417,11.055 C21.549,11.187 21.637,11.319 21.681,11.451 C21.725,11.495 21.758,11.517 21.78,11.517 C21.802,11.539 21.824,11.5555 21.846,11.5665 C21.868,11.5775 21.89,11.594 21.912,11.616 C21.89,11.924 21.835,12.133 21.747,12.243 C21.703,12.309 21.626,12.397 21.516,12.507 C21.956,12.265 22.374,12.0505 22.77,11.8635 C23.166,11.6765 23.551,11.506 23.925,11.352 C24.761,11.066 25.652,10.923 26.598,10.923 C26.774,10.923 26.906,10.934 26.994,10.956 C27.038,10.956 27.0875,10.9615 27.1425,10.9725 C27.1975,10.9835 27.247,10.989 27.291,10.989 C27.401,10.989 27.522,11.011 27.654,11.055 C27.544,11.077 27.478,11.121 27.456,11.187 C27.324,11.275 27.192,11.418 27.06,11.616 C27.192,11.55 27.357,11.484 27.555,11.418 C27.753,11.352 27.918,11.286 28.05,11.22 L28.941,10.56 C29.403,10.362 29.909,10.263 30.459,10.263 C31.075,10.263 31.647,10.527 32.175,11.055 C32.219,11.099 32.318,11.154 32.472,11.22 C32.538,11.264 32.604,11.2915 32.67,11.3025 C32.736,11.3135 32.791,11.341 32.835,11.385 C33.011,11.429 33.187,11.4675 33.363,11.5005 C33.539,11.5335 33.715,11.528 33.891,11.484 C34.133,11.484 34.32,11.473 34.452,11.451 C32.846,11.385 31.746,10.516 31.152,8.844 C31.02,8.624 30.888,8.426 30.756,8.25 C30.712,8.162 30.657,8.074 30.591,7.986 C30.525,7.898 30.47,7.821 30.426,7.755 L30.129,7.095 C29.843,6.699 29.634,6.435 29.502,6.303 C29.414,6.193 29.337,6.1105 29.271,6.0555 C29.205,6.0005 29.15,5.951 29.106,5.907 C28.996,5.841 28.908,5.808 28.842,5.808 L28.677,5.808 C28.589,5.808 28.512,5.841 28.446,5.907 C28.424,5.951 28.292,6.017 28.05,6.105 C27.94,6.149 27.797,6.193 27.621,6.237 C27.445,6.281 27.28,6.314 27.126,6.336 C26.862,6.402 26.719,6.435 26.697,6.435 L26.499,6.435 L26.4,6.435 L26.334,6.435 C26.246,6.655 26.015,6.71 25.641,6.6 C25.487,6.6 25.388,6.589 25.344,6.567 C25.322,6.567 25.267,6.49 25.179,6.336 C25.179,6.204 25.245,6.105 25.377,6.039 C25.421,5.995 25.487,5.973 25.575,5.973 C25.399,5.885 25.289,5.753 25.245,5.577 C25.223,5.467 25.2065,5.379 25.1955,5.313 C25.1845,5.247 25.179,5.192 25.179,5.148 C25.179,5.104 25.1845,5.0435 25.1955,4.9665 C25.2065,4.8895 25.223,4.774 25.245,4.62 C25.267,4.488 25.2835,4.345 25.2945,4.191 C25.3055,4.037 25.322,3.894 25.344,3.762 C25.41,3.608 25.498,3.498 25.608,3.432 L25.806,3.333 C25.784,3.333 25.773,3.322 25.773,3.3 C25.773,3.278 25.839,3.234 25.971,3.168 C26.103,3.08 26.213,3.047 26.301,3.069 C26.389,3.135 26.488,3.168 26.598,3.168 C26.664,3.102 26.719,3.069 26.763,3.069 C26.785,3.069 26.884,3.102 27.06,3.168 C27.126,3.168 27.236,3.146 27.39,3.102 C27.566,3.08 27.698,3.102 27.786,3.168 L28.017,3.168 C28.061,3.19 28.204,3.223 28.446,3.267 C28.534,3.267 28.677,3.3 28.875,3.366 C28.985,3.41 29.0895,3.4485 29.1885,3.4815 C29.2875,3.5145 29.392,3.553 29.502,3.597 C29.722,3.707 29.92,3.828 30.096,3.96 C30.294,4.092 30.404,4.202 30.426,4.29 C30.448,4.334 30.481,4.378 30.525,4.422 C30.569,4.466 30.624,4.499 30.69,4.521 C30.712,4.543 30.811,4.598 30.987,4.686 L31.383,5.016 C31.471,5.104 31.57,5.1865 31.68,5.2635 C31.79,5.3405 31.9,5.423 32.01,5.511 C32.274,5.709 32.483,5.885 32.637,6.039 C32.813,6.171 32.9945,6.3085 33.1815,6.4515 C33.3685,6.5945 33.561,6.743 33.759,6.897 C34.001,7.073 34.243,7.2655 34.485,7.4745 C34.727,7.6835 34.947,7.876 35.145,8.052 C35.343,8.228 35.5355,8.415 35.7225,8.613 C35.9095,8.811 36.091,9.02 36.267,9.24 C36.443,9.46 36.6245,9.68 36.8115,9.9 C36.9985,10.12 37.191,10.34 37.389,10.56 Z" id="Path"></path>
            </g>
        </g>
    </g>
</svg>