<?xml version="1.0" encoding="UTF-8"?>
<svg width="48px" height="48px" viewBox="0 0 48 48" version="1.1" xmlns="http://www.w3.org/2000/svg" xmlns:xlink="http://www.w3.org/1999/xlink">
    <title>influence</title>
    <g id="Page-1" stroke="none" stroke-width="1" fill="none" fill-rule="evenodd">
        <g id="influence" fill="#543E3E" fill-rule="nonzero">
            <g id="" transform="translate(3.662000, 13.705600)">
                <path d="M42.238,10.2424 C42.2566667,10.5597333 42.238,10.9237333 42.182,11.3344 C42.1446667,11.5210667 42.1026667,11.7030667 42.056,11.8804 C42.0093333,12.0577333 41.9673333,12.2304 41.93,12.3984 C41.7806667,12.8277333 41.6313333,13.2430667 41.482,13.6444 C41.3326667,14.0457333 41.1553333,14.4330667 40.95,14.8064 C40.838,15.0304 40.6886667,15.2357333 40.502,15.4224 C40.2966667,15.6277333 40.1006667,15.7957333 39.914,15.9264 C39.6153333,16.1877333 39.3166667,16.4024 39.018,16.5704 C38.8686667,16.6637333 38.7193333,16.7617333 38.57,16.8644 C38.4206667,16.9670667 38.2713333,17.0744 38.122,17.1864 C37.898,17.3357333 37.6366667,17.3264 37.338,17.1584 C37.0393333,17.0277333 36.7126667,16.8690667 36.358,16.6824 C36.2086667,16.5890667 36.064,16.4910667 35.924,16.3884 C35.784,16.2857333 35.6393333,16.1690667 35.49,16.0384 C35.378,15.9637333 35.266,15.9637333 35.154,16.0384 C35.0046667,16.1504 34.8833333,16.2250667 34.79,16.2624 C34.678,16.3370667 34.5846667,16.4304 34.51,16.5424 C34.2673333,16.7850667 33.9966667,16.8317333 33.698,16.6824 C33.5486667,16.5890667 33.3946667,16.4957333 33.236,16.4024 C33.0773333,16.3090667 32.9233333,16.2157333 32.774,16.1224 C32.4753333,15.9544 32.2326667,15.7024 32.046,15.3664 C31.9526667,15.1984 31.8033333,15.1890667 31.598,15.3384 C31.3553333,15.4877333 31.1173333,15.6277333 30.884,15.7584 C30.6506667,15.8890667 30.4126667,16.0104 30.17,16.1224 C29.7033333,16.3650667 29.1713333,16.5424 28.574,16.6544 C28.406,16.6917333 28.3033333,16.7290667 28.266,16.7664 C28.1913333,16.7850667 28.1353333,16.8877333 28.098,17.0744 C28.042,17.6344 27.8086667,18.0917333 27.398,18.4464 C27.0246667,18.8197333 26.558,19.0250667 25.998,19.0624 C25.8113333,19.0624 25.6526667,19.0904 25.522,19.1464 C25.354,19.2024 25.2046667,19.2957333 25.074,19.4264 C24.794,19.7810667 24.458,19.9770667 24.066,20.0144 C23.7113333,20.0330667 23.31,19.9864 22.862,19.8744 C22.6193333,19.8370667 22.4513333,19.8277333 22.358,19.8464 C22.2086667,19.8464 22.05,19.9024 21.882,20.0144 C21.77,20.0517333 21.6393333,20.0890667 21.49,20.1264 C21.3406667,20.1824 21.2006667,20.1824 21.07,20.1264 C20.958,20.1264 20.8413333,20.1170667 20.72,20.0984 C20.5986667,20.0797333 20.4726667,20.0517333 20.342,20.0144 C20.2113333,19.9770667 20.09,19.9490667 19.978,19.9304 C19.866,19.9117333 19.7446667,19.8837333 19.614,19.8464 C19.4273333,19.8090667 19.2873333,19.8184 19.194,19.8744 C18.9326667,20.0237333 18.6713333,20.1077333 18.41,20.1264 C18.1486667,20.1450667 17.878,20.1170667 17.598,20.0424 C17.3926667,19.9677333 17.1593333,19.8370667 16.898,19.6504 C16.8046667,19.5570667 16.716,19.4590667 16.632,19.3564 C16.548,19.2537333 16.4686667,19.1370667 16.394,19.0064 C16.3753333,18.9690667 16.3566667,18.9270667 16.338,18.8804 C16.3193333,18.8337333 16.2913333,18.7824 16.254,18.7264 C16.2166667,18.6890667 16.1886667,18.6424 16.17,18.5864 C16.1513333,18.5304 16.1233333,18.4837333 16.086,18.4464 C16.0486667,18.4837333 16.03,18.5397333 16.03,18.6144 C15.8246667,18.6330667 15.6006667,18.6797333 15.358,18.7544 C15.1526667,18.8104 14.9286667,18.8384 14.686,18.8384 C14.4433333,18.8570667 14.238,18.7824 14.07,18.6144 C13.8833333,18.4650667 13.7526667,18.2784 13.678,18.0544 C13.5846667,17.8677333 13.5286667,17.6437333 13.51,17.3824 C13.4913333,17.2517333 13.4773333,17.1257333 13.468,17.0044 C13.4586667,16.8830667 13.4353333,16.7570667 13.398,16.6264 C13.2113333,16.6264 13.006,16.5797333 12.782,16.4864 C12.5953333,16.4304 12.4273333,16.2810667 12.278,16.0384 C12.166,15.8890667 12.082,15.6837333 12.026,15.4224 C11.9886667,15.3104 11.956,15.1937333 11.928,15.0724 C11.9,14.9510667 11.8673333,14.8250667 11.83,14.6944 C11.7926667,14.6944 11.7553333,14.6897333 11.718,14.6804 C11.6806667,14.6710667 11.6246667,14.6570667 11.55,14.6384 C11.4753333,14.6197333 11.3446667,14.5917333 11.158,14.5544 C10.5793333,14.4610667 10.29,14.1437333 10.29,13.6024 C10.29,13.3970667 10.1966667,13.2570667 10.01,13.1824 C9.87933333,13.1450667 9.74866667,13.0984 9.618,13.0424 C9.48733333,12.9864 9.35666667,12.9397333 9.226,12.9024 C9.07666667,12.8650667 8.94133333,12.8230667 8.82,12.7764 C8.69866667,12.7297333 8.582,12.6784 8.47,12.6224 C8.302,12.5477333 8.17133333,12.5384 8.078,12.5944 C8.04066667,12.6317333 8.008,12.6690667 7.98,12.7064 C7.952,12.7437333 7.91933333,12.7997333 7.882,12.8744 C7.78866667,13.1357333 7.69066667,13.3970667 7.588,13.6584 C7.48533333,13.9197333 7.378,14.1904 7.266,14.4704 C7.154,14.7317333 7.042,14.9930667 6.93,15.2544 C6.818,15.5157333 6.69666667,15.7770667 6.566,16.0384 C6.51,16.1877333 6.44933333,16.3464 6.384,16.5144 C6.31866667,16.6824 6.24866667,16.8504 6.174,17.0184 C6.04333333,17.3544 5.782,17.5037333 5.39,17.4664 C4.86733333,17.4104 4.37266667,17.2797333 3.906,17.0744 C3.66333333,16.9810667 3.42533333,16.8877333 3.192,16.7944 C2.95866667,16.7010667 2.72066667,16.6077333 2.478,16.5144 C2.44066667,16.4957333 2.38466667,16.4490667 2.31,16.3744 L2.142,16.2064 C1.88066667,15.8330667 1.64266667,15.4550667 1.428,15.0724 C1.21333333,14.6897333 1.01266667,14.2930667 0.826,13.8824 C0.471333333,13.0424 0.228666667,12.1837333 0.098,11.3064 C-0.0326666667,10.6344 -0.0326666667,9.98106667 0.098,9.3464 C0.191333333,9.02906667 0.28,8.7164 0.364,8.4084 C0.448,8.1004 0.546,7.79706667 0.658,7.4984 C1.19933333,6.0984 1.918,4.9224 2.814,3.9704 C3.71,3.0184 4.79266667,2.16906667 6.062,1.4224 C6.26733333,1.29173333 6.47266667,1.16573333 6.678,1.0444 C6.88333333,0.923066667 7.08866667,0.815733333 7.294,0.7224 C7.49933333,0.6104 7.70466667,0.4984 7.91,0.3864 C8.11533333,0.2744 8.32066667,0.1624 8.526,0.0504 C8.60066667,-0.0056 8.70333333,-0.0149333333 8.834,0.0224 C8.946,0.0224 9.03,0.0504 9.086,0.1064 C9.34733333,0.2184 9.60866667,0.335066667 9.87,0.4564 C10.1313333,0.577733333 10.3926667,0.703733333 10.654,0.8344 C10.9153333,0.965066667 11.1766667,1.09106667 11.438,1.2124 C11.6993333,1.33373333 11.9606667,1.45973333 12.222,1.5904 C12.446,1.68373333 12.6326667,1.80506667 12.782,1.9544 C12.9126667,2.08506667 13.0246667,2.2624 13.118,2.4864 C13.1366667,2.63573333 13.2206667,2.78506667 13.37,2.9344 C13.426,2.9904 13.4913333,3.0464 13.566,3.1024 C13.6406667,3.1584 13.7153333,3.20506667 13.79,3.2424 C13.8833333,3.27973333 13.9673333,3.31706667 14.042,3.3544 C14.1166667,3.39173333 14.2006667,3.42906667 14.294,3.4664 C14.4433333,3.5224 14.602,3.53173333 14.77,3.4944 C14.8073333,3.45706667 14.84,3.4384 14.868,3.4384 C14.896,3.4384 14.9193333,3.42906667 14.938,3.4104 C14.994,3.39173333 15.0313333,3.3544 15.05,3.2984 C16.0953333,2.30906667 17.2526667,2.0664 18.522,2.5704 C19.026,2.71973333 19.446,2.75706667 19.782,2.6824 C20.174,2.55173333 20.5566667,2.41173333 20.93,2.2624 C21.2473333,2.11306667 21.5646667,2.1504 21.882,2.3744 C22.0126667,2.46773333 22.1433333,2.5564 22.274,2.6404 C22.4046667,2.7244 22.5353333,2.81306667 22.666,2.9064 C22.8153333,2.99973333 22.96,3.07906667 23.1,3.1444 C23.24,3.20973333 23.3846667,3.28906667 23.534,3.3824 C23.5526667,3.40106667 23.618,3.4104 23.73,3.4104 C24.0473333,3.37306667 24.318,3.4104 24.542,3.5224 C24.654,3.5784 24.766,3.6484 24.878,3.7324 C24.99,3.8164 25.1113333,3.90506667 25.242,3.9984 C25.4473333,4.1664 25.648,4.32973333 25.844,4.4884 C26.04,4.64706667 26.2406667,4.80106667 26.446,4.9504 C26.6513333,5.09973333 26.8613333,5.2444 27.076,5.3844 C27.2906667,5.5244 27.5006667,5.66906667 27.706,5.8184 C27.8553333,5.91173333 27.9766667,5.9584 28.07,5.9584 C28.182,5.92106667 28.2846667,5.82773333 28.378,5.6784 C28.49,5.49173333 28.6206667,5.33306667 28.77,5.2024 C28.8633333,5.1464 28.9473333,5.08573333 29.022,5.0204 C29.0966667,4.95506667 29.1806667,4.90373333 29.274,4.8664 C29.722,4.54906667 30.17,4.2364 30.618,3.9284 C31.066,3.6204 31.514,3.30773333 31.962,2.9904 C32.41,2.67306667 32.8626667,2.3604 33.32,2.0524 C33.7773333,1.7444 34.23,1.43173333 34.678,1.1144 C34.8273333,1.02106667 34.9766667,0.955733333 35.126,0.9184 C35.238,0.881066667 35.3873333,0.927733333 35.574,1.0584 C35.9473333,1.30106667 36.3113333,1.5344 36.666,1.7584 C37.0206667,1.9824 37.366,2.22506667 37.702,2.4864 C38.374,2.95306667 38.9993333,3.51306667 39.578,4.1664 C40.2873333,5.04373333 40.8753333,5.9864 41.342,6.9944 C41.566,7.4984 41.7526667,8.0164 41.902,8.5484 C42.0513333,9.0804 42.1633333,9.64506667 42.238,10.2424 Z M10.206,9.9344 C10.3553333,9.61706667 10.5093333,9.3044 10.668,8.9964 C10.8266667,8.6884 10.9806667,8.37573333 11.13,8.0584 C11.4473333,7.4424 11.6433333,6.77973333 11.718,6.0704 C11.7553333,5.8464 11.7973333,5.61773333 11.844,5.3844 C11.8906667,5.15106667 11.942,4.9224 11.998,4.6984 C12.0353333,4.4744 12.082,4.24573333 12.138,4.0124 C12.194,3.77906667 12.25,3.54106667 12.306,3.2984 C12.2686667,3.26106667 12.2313333,3.20506667 12.194,3.1304 C12.1566667,3.05573333 12.1193333,2.9904 12.082,2.9344 C11.69,2.63573333 11.354,2.52373333 11.074,2.5984 C10.794,2.7104 10.6166667,3.02773333 10.542,3.5504 L10.542,3.6624 C10.542,3.7184 10.5233333,3.76506667 10.486,3.8024 C10.4486667,3.93306667 10.416,4.05906667 10.388,4.1804 C10.36,4.30173333 10.3273333,4.42773333 10.29,4.5584 C10.2526667,4.68906667 10.2153333,4.8104 10.178,4.9224 C10.1406667,5.0344 10.1033333,5.15573333 10.066,5.2864 C9.99133333,5.52906667 9.92133333,5.7624 9.856,5.9864 C9.79066667,6.2104 9.71133333,6.44373333 9.618,6.6864 C9.52466667,6.92906667 9.44533333,7.1624 9.38,7.3864 C9.31466667,7.6104 9.24466667,7.8344 9.17,8.0584 C9.114,8.26373333 9.058,8.46906667 9.002,8.6744 C8.946,8.87973333 8.89,9.08506667 8.834,9.2904 C8.79666667,9.49573333 8.74533333,9.70573333 8.68,9.9204 C8.61466667,10.1350667 8.54466667,10.3450667 8.47,10.5504 C8.302,11.0170667 8.34866667,11.3250667 8.61,11.4744 C8.96466667,11.6984 9.282,11.5957333 9.562,11.1664 C9.618,11.0730667 9.674,10.9750667 9.73,10.8724 C9.786,10.7697333 9.842,10.6624 9.898,10.5504 C9.93533333,10.4384 9.982,10.3310667 10.038,10.2284 C10.094,10.1257333 10.15,10.0277333 10.206,9.9344 Z M26.474,17.1584 C26.53,16.9344 26.5486667,16.7384 26.53,16.5704 C26.53,16.3837333 26.4833333,16.1970667 26.39,16.0104 C26.278,15.7677333 26.1566667,15.5344 26.026,15.3104 C25.8953333,15.0864 25.7553333,14.8717333 25.606,14.6664 C25.2886667,14.1997333 25.0366667,13.7424 24.85,13.2944 C24.6446667,12.8650667 24.4486667,12.4450667 24.262,12.0344 C24.0753333,11.6237333 23.8886667,11.2037333 23.702,10.7744 C23.5153333,10.3450667 23.3333333,9.91573333 23.156,9.4864 C22.9786667,9.05706667 22.7873333,8.62773333 22.582,8.1984 C22.5633333,8.17973333 22.5493333,8.16106667 22.54,8.1424 C22.5306667,8.12373333 22.5073333,8.09573333 22.47,8.0584 C22.3953333,7.98373333 22.3486667,7.9464 22.33,7.9464 C22.218,7.92773333 22.1013333,7.90906667 21.98,7.8904 C21.8586667,7.87173333 21.742,7.84373333 21.63,7.8064 C21.518,7.76906667 21.406,7.74106667 21.294,7.7224 C21.182,7.70373333 21.0606667,7.68506667 20.93,7.6664 C20.874,7.6664 20.818,7.66173333 20.762,7.6524 C20.706,7.64306667 20.65,7.6384 20.594,7.6384 C20.4446667,7.6384 20.3326667,7.61973333 20.258,7.5824 C20.1646667,7.54506667 20.0806667,7.54506667 20.006,7.5824 C19.95,7.60106667 19.866,7.64773333 19.754,7.7224 C19.362,8.0584 18.9606667,8.2824 18.55,8.3944 C18.1206667,8.5064 17.6633333,8.48773333 17.178,8.3384 C17.0846667,8.2824 16.9913333,8.23106667 16.898,8.1844 C16.8046667,8.13773333 16.7113333,8.0864 16.618,8.0304 C16.4126667,7.89973333 16.2166667,7.79706667 16.03,7.7224 C15.8806667,7.64773333 15.7406667,7.54506667 15.61,7.4144 C15.4793333,7.28373333 15.414,7.1344 15.414,6.9664 C15.414,6.7424 15.4793333,6.5744 15.61,6.4624 C15.7033333,6.38773333 15.862,6.30373333 16.086,6.2104 C16.87,5.9864 17.5233333,5.54773333 18.046,4.8944 C18.2326667,4.6144 18.438,4.42773333 18.662,4.3344 C18.8673333,4.20373333 19.138,4.1664 19.474,4.2224 C19.642,4.25973333 19.8193333,4.25973333 20.006,4.2224 C20.0993333,4.20373333 20.1926667,4.18973333 20.286,4.1804 C20.3793333,4.17106667 20.4726667,4.14773333 20.566,4.1104 C20.8646667,4.09173333 21.2006667,4.01706667 21.574,3.8864 C21.7233333,3.81173333 21.8866667,3.74173333 22.064,3.6764 C22.2413333,3.61106667 22.414,3.53173333 22.582,3.4384 C22.414,3.36373333 22.246,3.28906667 22.078,3.2144 C21.91,3.13973333 21.7513333,3.05573333 21.602,2.9624 C21.4153333,2.88773333 21.2006667,2.88773333 20.958,2.9624 C20.5286667,3.16773333 20.1086667,3.34506667 19.698,3.4944 C19.2313333,3.64373333 18.7833333,3.67173333 18.354,3.5784 C17.9433333,3.50373333 17.5606667,3.50373333 17.206,3.5784 C16.87,3.65306667 16.4966667,3.76506667 16.086,3.9144 C15.8806667,4.00773333 15.694,4.06373333 15.526,4.0824 C15.3953333,4.11973333 15.1993333,4.1104 14.938,4.0544 C14.8446667,4.03573333 14.6766667,4.0264 14.434,4.0264 C14.266,4.0264 14.126,4.14773333 14.014,4.3904 L13.426,5.5664 C13.3326667,5.77173333 13.2346667,5.96773333 13.132,6.1544 C13.0293333,6.34106667 12.9313333,6.53706667 12.838,6.7424 C12.67,7.05973333 12.4973333,7.38173333 12.32,7.7084 C12.1426667,8.03506667 11.97,8.35706667 11.802,8.6744 C11.6153333,8.99173333 11.438,9.30906667 11.27,9.6264 C11.102,9.94373333 10.9246667,10.2610667 10.738,10.5784 C10.5886667,10.8397333 10.5326667,11.0357333 10.57,11.1664 C10.57,11.2970667 10.7006667,11.4464 10.962,11.6144 C11.0366667,11.6704 11.1393333,11.6984 11.27,11.6984 C11.3446667,11.7170667 11.438,11.7077333 11.55,11.6704 C11.7366667,11.6517333 11.9326667,11.6797333 12.138,11.7544 C12.306,11.8104 12.446,11.9410667 12.558,12.1464 C12.5953333,12.2210667 12.6326667,12.2910667 12.67,12.3564 C12.7073333,12.4217333 12.7446667,12.4824 12.782,12.5384 C12.8193333,12.5944 12.852,12.6550667 12.88,12.7204 C12.908,12.7857333 12.9406667,12.8650667 12.978,12.9584 C13.0526667,12.9770667 13.1273333,12.9864 13.202,12.9864 C13.2766667,12.9864 13.3606667,12.9864 13.454,12.9864 C13.5473333,13.0050667 13.6313333,13.0237333 13.706,13.0424 C13.7806667,13.0610667 13.8646667,13.0984 13.958,13.1544 C14.126,13.2290667 14.294,13.3317333 14.462,13.4624 C14.63,13.5744 14.7326667,13.7050667 14.77,13.8544 C14.826,14.0037333 14.868,14.1624 14.896,14.3304 C14.924,14.4984 14.9566667,14.6664 14.994,14.8344 C15.05,15.1330667 15.0126667,15.4690667 14.882,15.8424 C15.1433333,15.9170667 15.4046667,16.0664 15.666,16.2904 C15.7593333,16.4024 15.8526667,16.5144 15.946,16.6264 C16.0393333,16.7384 16.1326667,16.8690667 16.226,17.0184 C16.282,17.1117333 16.31,17.2330667 16.31,17.3824 C16.31,17.4570667 16.3146667,17.5270667 16.324,17.5924 C16.3333333,17.6577333 16.338,17.7277333 16.338,17.8024 L16.338,17.9704 L16.338,18.1384 C16.4126667,18.2317333 16.4873333,18.3157333 16.562,18.3904 C16.6366667,18.4650667 16.7113333,18.5490667 16.786,18.6424 C16.954,18.8290667 17.122,18.9877333 17.29,19.1184 C17.4393333,19.1557333 17.57,19.1650667 17.682,19.1464 L18.13,19.1464 C18.13,19.0904 18.1253333,19.0344 18.116,18.9784 C18.1066667,18.9224 18.102,18.8664 18.102,18.8104 C18.102,18.6610667 18.0833333,18.5397333 18.046,18.4464 C18.046,18.4090667 18.0273333,18.3530667 17.99,18.2784 C17.9526667,18.2224 17.934,18.1477333 17.934,18.0544 C17.934,17.9797333 17.9433333,17.9144 17.962,17.8584 C17.9993333,17.7464 18.0273333,17.6810667 18.046,17.6624 C18.1393333,17.6437333 18.2793333,17.6624 18.466,17.7184 C18.522,17.7557333 18.5686667,17.8024 18.606,17.8584 C18.6246667,17.8957333 18.6433333,17.9237333 18.662,17.9424 C18.6806667,17.9610667 18.6993333,17.9890667 18.718,18.0264 C18.9233333,18.2690667 19.1566667,18.4744 19.418,18.6424 C19.7166667,18.8290667 20.0153333,18.9317333 20.314,18.9504 C20.7246667,19.0064 20.9673333,18.8384 21.042,18.4464 C21.0606667,18.2597333 21.042,18.0917333 20.986,17.9424 C20.9113333,17.7557333 20.818,17.6064 20.706,17.4944 C20.6313333,17.3637333 20.6033333,17.2610667 20.622,17.1864 C20.622,17.1490667 20.6686667,17.0650667 20.762,16.9344 C20.874,16.8224 20.9766667,16.7944 21.07,16.8504 C21.1446667,16.8877333 21.2286667,16.9437333 21.322,17.0184 C21.5273333,17.2424 21.742,17.4570667 21.966,17.6624 C22.078,17.7744 22.19,17.8864 22.302,17.9984 C22.414,18.1104 22.526,18.2317333 22.638,18.3624 C22.862,18.5677333 23.086,18.6797333 23.31,18.6984 C23.5526667,18.7544 23.8046667,18.7077333 24.066,18.5584 C24.1966667,18.4837333 24.2806667,18.3997333 24.318,18.3064 C24.3553333,18.2130667 24.3086667,18.0917333 24.178,17.9424 C23.842,17.5877333 23.618,17.1677333 23.506,16.6824 C23.4686667,16.4397333 23.436,16.2064 23.408,15.9824 C23.38,15.7584 23.366,15.5250667 23.366,15.2824 C23.366,15.1704 23.4033333,15.1050667 23.478,15.0864 C23.5153333,15.0490667 23.548,15.0164 23.576,14.9884 C23.604,14.9604 23.6366667,14.9277333 23.674,14.8904 C23.7113333,15.0024 23.7486667,15.0770667 23.786,15.1144 C23.8046667,15.1517333 23.8186667,15.1797333 23.828,15.1984 C23.8373333,15.2170667 23.842,15.2450667 23.842,15.2824 C23.8233333,15.6557333 23.87,16.0197333 23.982,16.3744 C24.1313333,16.7104 24.3273333,16.9997333 24.57,17.2424 C24.7193333,17.4290667 24.8686667,17.5690667 25.018,17.6624 C25.186,17.7744 25.3633333,17.8490667 25.55,17.8864 C25.7926667,17.8864 25.9886667,17.8210667 26.138,17.6904 C26.306,17.5224 26.418,17.3450667 26.474,17.1584 Z M12.222,13.2664 C12.278,13.0984 12.278,12.9397333 12.222,12.7904 C12.1846667,12.3424 11.9606667,12.1090667 11.55,12.0904 C11.2326667,12.0530667 11.018,12.1184 10.906,12.2864 C10.794,12.4544 10.71,12.7437333 10.654,13.1544 C10.6913333,13.2104 10.71,13.3130667 10.71,13.4624 C10.71,13.6117333 10.7286667,13.7050667 10.766,13.7424 C11.102,13.9850667 11.4566667,14.0504 11.83,13.9384 C12.0353333,13.8824 12.1473333,13.7984 12.166,13.6864 C12.2033333,13.4997333 12.222,13.3597333 12.222,13.2664 Z M12.81,15.7024 C13.0526667,15.7584 13.2766667,15.7770667 13.482,15.7584 C13.7246667,15.7397333 13.874,15.6744 13.93,15.5624 C14.1166667,15.2264 14.2566667,14.9370667 14.35,14.6944 C14.3313333,14.6944 14.3126667,14.6850667 14.294,14.6664 C14.2566667,14.6290667 14.238,14.6104 14.238,14.6104 L14.238,14.3024 C14.2193333,14.0410667 14.1073333,13.8264 13.902,13.6584 C13.7153333,13.4904 13.5006667,13.4157333 13.258,13.4344 C12.9966667,13.4344 12.8006667,13.5184 12.67,13.6864 C12.5206667,13.8544 12.4366667,14.0877333 12.418,14.3864 L12.418,14.6944 C12.418,14.7317333 12.4133333,14.7784 12.404,14.8344 C12.3946667,14.8904 12.39,14.9464 12.39,15.0024 C12.39,15.2824 12.53,15.5157333 12.81,15.7024 Z M14.826,18.1384 C15.0126667,18.1570667 15.1993333,18.0917333 15.386,17.9424 C15.5353333,17.7930667 15.6286667,17.5970667 15.666,17.3544 C15.666,17.2424 15.6286667,17.1210667 15.554,16.9904 C15.498,16.8597333 15.414,16.7477333 15.302,16.6544 C15.246,16.5797333 15.1433333,16.4864 14.994,16.3744 C14.8446667,16.2997333 14.7326667,16.2624 14.658,16.2624 C14.4153333,16.2624 14.2286667,16.3464 14.098,16.5144 C13.9486667,16.6637333 13.874,16.8784 13.874,17.1584 C13.874,17.4570667 13.958,17.6904 14.126,17.8584 C14.294,18.0450667 14.5273333,18.1384 14.826,18.1384 Z M31.654,12.6224 C31.934,12.3610667 32.102,12.1557333 32.158,12.0064 C32.214,11.8197333 32.1766667,11.5770667 32.046,11.2784 C32.0086667,11.2224 31.9853333,11.1664 31.976,11.1104 C31.9666667,11.0544 31.9526667,11.0077333 31.934,10.9704 C31.8966667,10.9330667 31.8733333,10.8864 31.864,10.8304 C31.8546667,10.7744 31.8406667,10.7277333 31.822,10.6904 C31.654,10.4290667 31.486,10.1584 31.318,9.8784 C31.15,9.5984 30.9913333,9.32773333 30.842,9.0664 C30.674,8.80506667 30.506,8.5344 30.338,8.2544 C30.17,7.9744 30.002,7.6944 29.834,7.4144 C29.778,7.2464 29.7033333,7.1344 29.61,7.0784 L29.358,6.7424 C29.2273333,6.61173333 29.0406667,6.58373333 28.798,6.6584 C28.7046667,6.69573333 28.616,6.7144 28.532,6.7144 C28.448,6.7144 28.3593333,6.7144 28.266,6.7144 C28.1726667,6.7144 28.0886667,6.7144 28.014,6.7144 C27.9393333,6.7144 27.8646667,6.69573333 27.79,6.6584 C27.51,6.5464 27.23,6.42506667 26.95,6.2944 C26.67,6.16373333 26.3993333,6.03306667 26.138,5.9024 C25.5966667,5.6224 25.1113333,5.27706667 24.682,4.8664 C24.4206667,4.60506667 24.178,4.4464 23.954,4.3904 C23.674,4.2784 23.338,4.24106667 22.946,4.2784 C22.5166667,4.31573333 22.1153333,4.38106667 21.742,4.4744 C21.35,4.56773333 20.958,4.59573333 20.566,4.5584 C20.3046667,4.5584 20.062,4.57706667 19.838,4.6144 C19.614,4.65173333 19.3993333,4.71706667 19.194,4.8104 C18.8206667,4.95973333 18.4753333,5.2584 18.158,5.7064 C18.046,5.89306667 17.8966667,6.03306667 17.71,6.1264 C17.5046667,6.2384 17.3086667,6.3224 17.122,6.3784 C17.0473333,6.39706667 16.9773333,6.4064 16.912,6.4064 C16.8466667,6.4064 16.7766667,6.41573333 16.702,6.4344 C16.5526667,6.47173333 16.422,6.50906667 16.31,6.5464 C16.2353333,6.6024 16.17,6.66773333 16.114,6.7424 C16.0393333,6.8544 16.002,6.9104 16.002,6.9104 C16.002,7.00373333 16.03,7.0784 16.086,7.1344 C16.1233333,7.17173333 16.1466667,7.20906667 16.156,7.2464 C16.1653333,7.28373333 16.1886667,7.32106667 16.226,7.3584 C16.3006667,7.39573333 16.366,7.4144 16.422,7.4144 L16.674,7.4144 C17.1033333,7.4144 17.5326667,7.32106667 17.962,7.1344 C18.1673333,7.04106667 18.3633333,6.93373333 18.55,6.8124 C18.7366667,6.69106667 18.9233333,6.55573333 19.11,6.4064 C19.2966667,6.27573333 19.4646667,6.2104 19.614,6.2104 C19.726,6.2104 19.838,6.2384 19.95,6.2944 C20.0806667,6.36906667 20.1926667,6.38773333 20.286,6.3504 C20.5286667,6.31306667 20.762,6.27573333 20.986,6.2384 C21.21,6.20106667 21.434,6.16373333 21.658,6.1264 C21.882,6.08906667 22.1106667,6.0564 22.344,6.0284 C22.5773333,6.0004 22.806,5.96773333 23.03,5.9304 C23.0486667,5.91173333 23.1046667,5.91173333 23.198,5.9304 C23.2726667,5.9304 23.3286667,5.94906667 23.366,5.9864 C23.3846667,6.00506667 23.394,6.05173333 23.394,6.1264 L23.394,6.3504 C23.394,6.5184 23.3846667,6.63973333 23.366,6.7144 C23.366,6.8824 23.3753333,7.00373333 23.394,7.0784 C23.4313333,7.26506667 23.4873333,7.42373333 23.562,7.5544 C23.6366667,7.6664 23.702,7.8344 23.758,8.0584 C23.9633333,8.6184 24.29,9.04773333 24.738,9.3464 C24.7753333,9.38373333 24.8126667,9.4164 24.85,9.4444 C24.8873333,9.4724 24.9246667,9.50506667 24.962,9.5424 C24.9993333,9.57973333 25.0366667,9.61706667 25.074,9.6544 C25.1113333,9.69173333 25.1486667,9.72906667 25.186,9.7664 C25.3726667,9.95306667 25.55,10.1210667 25.718,10.2704 C25.886,10.4197333 26.0633333,10.5690667 26.25,10.7184 C26.6233333,11.0170667 27.0806667,11.2037333 27.622,11.2784 C27.6406667,11.2784 27.6686667,11.2877333 27.706,11.3064 C27.7433333,11.3250667 27.7806667,11.3437333 27.818,11.3624 C27.8926667,11.3997333 27.986,11.4370667 28.098,11.4744 L28.098,11.6144 C28.0606667,11.6330667 28.0233333,11.6470667 27.986,11.6564 C27.9486667,11.6657333 27.9113333,11.6797333 27.874,11.6984 C27.7993333,11.7357333 27.734,11.7730667 27.678,11.8104 C27.6406667,11.8477333 27.594,11.8850667 27.538,11.9224 C27.482,11.9597333 27.426,11.9970667 27.37,12.0344 C27.2393333,12.0904 27.1646667,12.1650667 27.146,12.2584 C27.0713333,12.4450667 27.0106667,12.6270667 26.964,12.8044 C26.9173333,12.9817333 26.8753333,13.1730667 26.838,13.3784 C26.782,13.8077333 26.8193333,14.2090667 26.95,14.5824 C27.0246667,14.8437333 27.174,15.0304 27.398,15.1424 C27.6406667,15.2730667 27.8833333,15.2917333 28.126,15.1984 C28.35,15.0864 28.5646667,14.9744 28.77,14.8624 C28.9753333,14.7504 29.1713333,14.6290667 29.358,14.4984 C29.5633333,14.3864 29.7546667,14.2557333 29.932,14.1064 C30.1093333,13.9570667 30.2913333,13.7984 30.478,13.6304 C30.5713333,13.5370667 30.674,13.4530667 30.786,13.3784 C30.898,13.3037333 31.0006667,13.2197333 31.094,13.1264 C31.2433333,12.9397333 31.43,12.7717333 31.654,12.6224 Z M35.238,14.4144 C35.3873333,14.3210667 35.5086667,14.2184 35.602,14.1064 C35.6766667,14.0130667 35.714,13.8357333 35.714,13.5744 C35.714,13.5184 35.7046667,13.4624 35.686,13.4064 C35.6673333,13.3690667 35.6533333,13.3364 35.644,13.3084 C35.6346667,13.2804 35.6113333,13.2477333 35.574,13.2104 C35.3686667,12.7250667 35.1633333,12.2584 34.958,11.8104 C34.846,11.5677333 34.734,11.3297333 34.622,11.0964 C34.51,10.8630667 34.3886667,10.6437333 34.258,10.4384 C34.0153333,9.9904 33.7726667,9.5564 33.53,9.1364 C33.2873333,8.7164 33.0353333,8.29173333 32.774,7.8624 C32.5126667,7.43306667 32.256,7.01306667 32.004,6.6024 C31.752,6.19173333 31.4953333,5.77173333 31.234,5.3424 C31.0846667,5.0624 30.9353333,4.91306667 30.786,4.8944 C30.5993333,4.8384 30.394,4.87573333 30.17,5.0064 C30.114,5.02506667 30.0673333,5.04373333 30.03,5.0624 C29.9926667,5.08106667 29.9553333,5.09973333 29.918,5.1184 C29.8806667,5.15573333 29.848,5.17906667 29.82,5.1884 C29.792,5.19773333 29.7686667,5.22106667 29.75,5.2584 C29.4886667,5.38906667 29.3393333,5.52906667 29.302,5.6784 C29.2833333,5.80906667 29.358,5.9864 29.526,6.2104 C29.638,6.3224 29.75,6.43906667 29.862,6.5604 C29.974,6.68173333 30.0953333,6.80773333 30.226,6.9384 C30.45,7.19973333 30.646,7.45173333 30.814,7.6944 C30.982,7.95573333 31.1406667,8.2264 31.29,8.5064 C31.4393333,8.7864 31.5886667,9.05706667 31.738,9.3184 C32.0366667,9.8784 32.354,10.4197333 32.69,10.9424 C32.9886667,11.4090667 33.222,11.8664 33.39,12.3144 C33.4833333,12.5570667 33.5673333,12.7997333 33.642,13.0424 C33.7166667,13.2850667 33.782,13.5370667 33.838,13.7984 C33.9313333,14.2650667 34.062,14.5264 34.23,14.5824 C34.3793333,14.6570667 34.6593333,14.6197333 35.07,14.4704 C35.1446667,14.4704 35.2006667,14.4517333 35.238,14.4144 Z" id="Shape"></path>
            </g>
        </g>
    </g>
</svg>